<svg version="1.1" preserveAspectRatio="none" xmlns="http://www.w3.org/2000/svg" width="500" height="500" viewBox="0 0 500 500"><rect width="100%" height="100%" fill="#FFFFFF" fill-opacity="1"/><svg viewBox="289.5036 357.3451 477.7429 196" width="333" height="136.61741493175512" x="83.5px" y="181.6913px" xmlns="http://www.w3.org/2000/svg" xmlns:xlink="http://www.w3.org/1999/xlink" preserveAspectRatio="none"><defs></defs><style>.companyName {fill:#0C0C0C;fill-opacity:1;}.icon3 {fill:#0C0C0C;fill-opacity:1;}.icon3-str {stroke:#0C0C0C;stroke-opacity:1;}.text {fill:#0C0C0C;fill-opacity:1;}</style><g opacity="1" transform="rotate(0 289.5036 517.3451)">
<svg width="477.7429" height="36" x="289.5036" y="517.3451" version="1.1" preserveAspectRatio="none" viewBox="2 -23.84 431.40000000000003 32.519999999999996">
  <g transform="matrix(1 0 0 1 0 0)" class="text"><path id="id-6izo4zJp24" d="M29.24-20.04L29.24-20.04Q29.20-19.56 29.06-18.76Q28.92-17.96 28.70-17.10Q28.48-16.24 28.26-15.44Q28.04-14.64 27.84-14.24L27.84-14.24Q27.60-13.20 27.02-11.80Q26.44-10.40 25.70-8.90Q24.96-7.40 24.10-5.94Q23.24-4.48 22.48-3.36L22.48-3.36Q22.08-2.44 21.44-1.98Q20.80-1.52 20.20-1.16L20.20-1.16Q20.08-1.24 19.70-1.94Q19.32-2.64 18.86-3.56Q18.40-4.48 17.94-5.46Q17.48-6.44 17.24-7.08L17.24-7.08Q16.40-7.84 15.56-9.80L15.56-9.80L14.36-12.60Q14.32-12.48 14.16-11.98Q14-11.48 13.78-10.76Q13.56-10.04 13.30-9.18Q13.04-8.32 12.78-7.56Q12.52-6.80 12.32-6.18Q12.12-5.56 12-5.32L12-5.32Q11.32-3.92 10.90-3.10Q10.48-2.28 10.18-1.84Q9.88-1.40 9.60-1.18Q9.32-0.96 8.92-0.72L8.92-0.72Q8.48-0.96 7.90-1.74Q7.32-2.52 6.82-3.48Q6.32-4.44 5.96-5.36Q5.60-6.28 5.56-6.84L5.56-6.84L2.92-13.48Q2.88-14 2.74-14.58Q2.60-15.16 2.44-15.74Q2.28-16.32 2.14-16.90Q2-17.48 2-18L2-18Q2-18.88 2.40-19.30Q2.80-19.72 3.36-19.72L3.36-19.72Q4.24-19.72 5-18.84L5-18.84L5-18.56Q5-18.20 5.10-17.28Q5.20-16.36 5.34-15.44Q5.48-14.52 5.58-13.86Q5.68-13.20 5.68-13.36L5.68-13.36Q6.12-12.28 6.60-11.06Q7.08-9.84 7.56-8.44L7.56-8.44Q7.84-7.24 8.88-4.96L8.88-4.96Q8.96-5 9.20-5.58Q9.44-6.16 9.72-6.86Q10-7.56 10.24-8.14Q10.48-8.72 10.56-8.80L10.56-8.80Q10.64-9.28 10.86-9.96Q11.08-10.64 11.32-11.28Q11.56-11.92 11.76-12.42Q11.96-12.92 12-13.04L12-13.04Q12.24-14.84 12.76-15.92L12.76-15.92Q12.72-16.04 12.72-16.32L12.72-16.32Q12.72-17.36 14.20-17.36L14.20-17.36Q14.68-17.36 14.98-16.96Q15.28-16.56 15.50-16.02Q15.72-15.48 15.88-14.94Q16.04-14.40 16.20-14.08L16.20-14.08L17.24-11.84Q17.68-10.88 18.06-10.26Q18.44-9.64 18.72-9.32L18.72-9.32Q19.04-8.56 19.56-7.58Q20.08-6.60 20.76-5.44L20.76-5.44Q21.16-5.88 21.68-6.66Q22.20-7.44 22.80-8.70Q23.40-9.96 24.08-11.80Q24.76-13.64 25.44-16.16L25.44-16.16Q26.48-19.92 27-20.80L27-20.80Q27.16-20.84 27.30-20.86Q27.44-20.88 27.64-20.88L27.64-20.88Q28.76-20.88 29.24-20.04Z M39.28-18.24L39.28-18.24Q39.28-17.56 39.06-17.14Q38.84-16.72 38.48-16.52Q38.12-16.32 37.70-16.26Q37.28-16.20 36.88-16.20L36.88-16.20Q36.32-16.60 35.94-17.10Q35.56-17.60 35.56-18.08L35.56-18.08Q35.56-18.44 35.88-18.90Q36.20-19.36 36.44-19.80L36.44-19.80L38.28-19.64Q39.28-19.40 39.28-18.24ZM37.92-12.44L37.92-12.44L37.92-12.28Q37.92-11.92 37.82-11.10Q37.72-10.28 37.52-8.96L37.52-8.96Q37.56-8.76 37.56-8.40L37.56-8.40Q37.56-8.16 37.40-7.32Q37.24-6.48 37.24-5.88L37.24-5.88Q37.24-5.76 37.26-5.64Q37.28-5.52 37.28-5.44L37.28-5.44Q37.16-4.88 37.16-3.84L37.16-3.84Q37.16-3.40 37.18-2.90Q37.20-2.40 37.24-1.84L37.24-1.84Q36.92-0.68 36-0.68L36-0.68Q35.20-0.68 34.90-1.54Q34.60-2.40 34.60-3.80L34.60-3.80Q34.60-5.20 34.70-6.36Q34.80-7.52 34.96-8.54Q35.12-9.56 35.30-10.50Q35.48-11.44 35.64-12.36L35.64-12.36Q36.04-12.96 36.76-12.96L36.76-12.96Q37.52-12.96 37.92-12.44Z M57.04-4.36L57.04-4.36Q56.92-3.20 56.20-2.16L56.20-2.16L54.76-0.12Q54.40 0.20 53.64 0.42Q52.88 0.64 52.10 0.78Q51.32 0.92 50.70 1Q50.08 1.08 50.04 1.08L50.04 1.08Q49.64 1.08 49.02 0.94Q48.40 0.80 47.80 0.64Q47.20 0.48 46.76 0.34Q46.32 0.20 46.28 0.20L46.28 0.20L46.24 0.20Q45.80 0.16 45.30 0Q44.80-0.16 44.34-0.40Q43.88-0.64 43.58-0.94Q43.28-1.24 43.28-1.60L43.28-1.60Q43.28-2.04 43.72-2.50Q44.16-2.96 44.60-2.96L44.60-2.96Q48.64-1.36 51.04-1.36L51.04-1.36Q51.92-1.36 52.54-1.72Q53.16-2.08 53.48-2.48L53.48-2.48L54.32-4Q54.32-4.52 54.02-5.04Q53.72-5.56 53.22-5.98Q52.72-6.40 52.08-6.72Q51.44-7.04 50.76-7.16L50.76-7.16Q50.00-7.28 49.22-7.60Q48.44-7.92 47.78-8.36Q47.12-8.80 46.70-9.34Q46.28-9.88 46.24-10.52L46.24-10.52Q46.20-10.52 46.16-12.04L46.16-12.04Q46.24-12.64 46.32-13Q46.40-13.36 46.68-13.66Q46.96-13.96 47.54-14.32Q48.12-14.68 49.20-15.36L49.20-15.36Q49.52-15.40 50.38-15.46Q51.24-15.52 52.72-15.68L52.72-15.68Q53.36-15.68 56.00-14.72L56.00-14.72Q56.40-14.36 56.40-13.64L56.40-13.64Q56.40-12.40 55.56-12.40L55.56-12.40Q55.52-12.40 55.48-12.42Q55.44-12.44 55.36-12.44L55.36-12.44L53.92-12.92Q52.84-13.24 52.08-13.24L52.08-13.24Q50.96-13.24 50.30-13.12Q49.64-13 49.32-12.82Q49.00-12.64 48.88-12.44Q48.76-12.24 48.72-12.08L48.72-12.08Q48.72-11.96 48.70-11.86Q48.68-11.76 48.68-11.64L48.68-11.64Q48.68-10.08 49.96-9.72L49.96-9.72Q56.28-8.44 57.04-4.36Z M76.92-1.28L76.92-1.28Q76.76-0.84 76.30-0.44Q75.84-0.04 75.40-0.04L75.40-0.04Q74.88-0.04 74.60-0.46Q74.32-0.88 74.20-1.54Q74.08-2.20 74.04-3.04Q74-3.88 74-4.72L74-4.72Q73.84-5.12 73.84-5.76L73.84-5.76Q73.84-6.04 73.86-6.38Q73.88-6.72 73.88-6.96L73.88-6.96Q73.88-8.36 73.64-9.22Q73.40-10.08 73.02-10.56Q72.64-11.04 72.20-11.20Q71.76-11.36 71.36-11.36L71.36-11.36Q70.64-11.36 69.90-11.08Q69.16-10.80 68.54-10.44Q67.92-10.08 67.50-9.70Q67.08-9.32 66.96-9.12L66.96-9.12Q66.84-8.68 66.78-7.86Q66.72-7.04 66.68-5.96Q66.64-4.88 66.60-3.62Q66.56-2.36 66.52-1.04L66.52-1.04Q66.40-0.28 65.28-0.28L65.28-0.28Q64.36-0.28 64.08-0.94Q63.80-1.60 63.80-3.20L63.80-3.20Q63.80-3.60 63.82-3.76Q63.84-3.92 63.90-4.32Q63.96-4.72 64.04-5.58Q64.12-6.44 64.24-8.32L64.24-8.32Q64.28-9.20 64.32-9.88Q64.36-10.56 64.32-11.08L64.32-11.08Q64.32-11.52 64.32-11.80Q64.32-12.08 64.28-12.28L64.28-12.28Q64.32-12.32 64.36-12.98Q64.40-13.64 64.48-14.44Q64.56-15.24 64.64-15.98Q64.72-16.72 64.84-17L64.84-17Q64.84-17.20 64.82-17.36Q64.80-17.52 64.80-17.72L64.80-17.72Q64.80-18.36 64.86-19.30Q64.92-20.24 65.12-21.08Q65.32-21.92 65.72-22.52Q66.12-23.12 66.84-23.12L66.84-23.12Q68.00-23.12 68.04-21.88L68.04-21.88Q67.96-20.72 67.76-19.20Q67.56-17.68 67.24-15.20L67.24-15.20Q67.04-14.60 67.04-13L67.04-13L67.04-12.28Q67.12-12.32 67.40-12.52Q67.68-12.72 68.06-12.98Q68.44-13.24 68.88-13.46Q69.32-13.68 69.72-13.76L69.72-13.76Q70.64-13.92 71.64-13.92L71.64-13.92Q73.56-13.92 74.70-12.82Q75.84-11.72 76.36-9.16L76.36-9.16Q76.40-8.20 76.46-7.60Q76.52-7 76.58-6.26Q76.64-5.52 76.74-4.40Q76.84-3.28 76.92-1.28Z M107.28-18.24L107.28-18.24Q107.28-17.56 107.06-17.14Q106.84-16.72 106.48-16.52Q106.12-16.32 105.70-16.26Q105.28-16.20 104.88-16.20L104.88-16.20Q104.32-16.60 103.94-17.10Q103.56-17.60 103.56-18.08L103.56-18.08Q103.56-18.44 103.88-18.90Q104.20-19.36 104.44-19.80L104.44-19.80L106.28-19.64Q107.28-19.40 107.28-18.24ZM105.92-12.44L105.92-12.44L105.92-12.28Q105.92-11.92 105.82-11.10Q105.72-10.28 105.52-8.96L105.52-8.96Q105.56-8.76 105.56-8.40L105.56-8.40Q105.56-8.16 105.40-7.32Q105.24-6.48 105.24-5.88L105.24-5.88Q105.24-5.76 105.26-5.64Q105.28-5.52 105.28-5.44L105.28-5.44Q105.16-4.88 105.16-3.84L105.16-3.84Q105.16-3.40 105.18-2.90Q105.20-2.40 105.24-1.84L105.24-1.84Q104.92-0.68 104-0.68L104-0.68Q103.20-0.68 102.90-1.54Q102.60-2.40 102.60-3.80L102.60-3.80Q102.60-5.20 102.70-6.36Q102.80-7.52 102.96-8.54Q103.12-9.56 103.30-10.50Q103.48-11.44 103.64-12.36L103.64-12.36Q104.04-12.96 104.76-12.96L104.76-12.96Q105.52-12.96 105.92-12.44Z M124.44-14.76L124.44-14.76Q124.76-14.52 124.76-13.84L124.76-13.84Q124.76-12.64 123.76-12.64L123.76-12.64L123.60-12.64Q123.60-12.64 123.02-12.58Q122.44-12.52 121.72-12.44Q121-12.36 120.34-12.26Q119.68-12.16 119.56-12.08L119.56-12.08L119.56-11.68Q119.56-11.24 119.48-10.50Q119.40-9.76 119.40-9.16L119.40-9.16Q119.40-8.96 119.42-8.76Q119.44-8.56 119.48-8.36L119.48-8.36Q119.32-7.88 119.32-6.76L119.32-6.76Q119.36-5.24 119.40-4.50Q119.44-3.76 119.64-3.40Q119.84-3.04 120.32-2.84Q120.80-2.64 121.72-2.24L121.72-2.24Q122.68-1.92 122.68-1.12L122.68-1.12Q122.68-0.60 122.30-0.24Q121.92 0.12 121.32 0.12L121.32 0.12Q121.04 0.12 120.48 0Q119.92-0.12 119.34-0.34Q118.76-0.56 118.28-0.86Q117.80-1.16 117.64-1.52L117.64-1.52Q117.16-2.56 116.88-3.54Q116.60-4.52 116.60-5.60L116.60-5.60Q116.60-6.72 116.64-7.28Q116.68-7.84 116.72-8.16Q116.76-8.48 116.80-8.74Q116.84-9 116.84-9.48L116.84-9.48Q116.84-9.80 116.82-10.14Q116.80-10.48 116.80-10.80L116.80-10.80Q116.80-11.24 116.82-11.54Q116.84-11.84 116.88-12.04L116.88-12.04Q115.80-11.96 113.68-11.40L113.68-11.40Q113.04-11.40 112.56-11.72Q112.08-12.04 112.08-12.64L112.08-12.64Q112.08-12.80 112.20-13.08Q112.32-13.36 112.62-13.62Q112.92-13.88 113.46-14.06Q114-14.24 114.80-14.24L114.80-14.24L115.04-14.24Q115.92-14.24 117.08-14.60L117.08-14.60Q117.08-14.64 117.10-14.94Q117.12-15.24 117.14-15.62Q117.16-16 117.18-16.36Q117.20-16.72 117.20-16.88L117.20-16.88L117.20-17.08Q117.24-17.52 117.36-18.34Q117.48-19.16 117.72-19.98Q117.96-20.80 118.34-21.40Q118.72-22 119.28-22L119.28-22Q120.36-22 120.60-21.04L120.60-21.04Q120.60-20.96 120.50-20.48Q120.40-20 120.28-19.40Q120.16-18.80 120.04-18.24Q119.92-17.68 119.92-17.52L119.92-17.52Q119.92-17.44 119.88-17.08Q119.84-16.72 119.82-16.28Q119.80-15.84 119.76-15.40Q119.72-14.96 119.72-14.76L119.72-14.76Q119.64-14.76 120.80-14.88L120.80-14.88Q121-14.88 121.18-14.90Q121.36-14.92 121.52-14.92L121.52-14.92Q121.64-14.92 121.72-14.90Q121.80-14.88 121.88-14.88L121.88-14.88Q122.24-14.92 122.56-14.94Q122.88-14.96 123.16-14.96L123.16-14.96Q124.04-14.96 124.44-14.76Z M135.80-3.36L135.80-3.36Q135.92-3.12 135.92-2.60L135.92-2.60Q135.92-1.92 135.84-1.28Q135.76-0.64 135.50 0.06Q135.24 0.76 134.74 1.58Q134.24 2.40 133.40 3.44L133.40 3.44Q133.08 3.56 132.84 3.56L132.84 3.56Q132.32 3.56 132.20 3L132.20 3Q132.20 2.88 132.38 2.52Q132.56 2.16 132.76 1.76Q132.96 1.36 133.16 1Q133.36 0.64 133.40 0.48L133.40 0.48Q133.56-0.16 133.64-0.96L133.64-0.96Q133.56-0.92 133.32-0.92L133.32-0.92Q132.84-0.92 132.20-1.38Q131.56-1.84 131.56-3L131.56-3Q131.72-3.28 131.90-3.58Q132.08-3.88 132.32-4.16Q132.56-4.44 132.90-4.62Q133.24-4.80 133.80-4.80L133.80-4.80Q135-4.80 135.80-3.36Z M177.24-7.84L177.24-7.84Q177.20-6.64 177.16-5.94Q177.12-5.24 177.06-4.80Q177-4.36 176.86-4.02Q176.72-3.68 176.48-3.16L176.48-3.16Q175.64-1.32 173.88-0.32Q172.12 0.68 169.40 0.68L169.40 0.68Q167.64 0.68 166.60 0.34Q165.56 0 164.40-0.48L164.40-0.48L162.72-1.28Q161.80-1.72 161.26-2.22Q160.72-2.72 160.72-3.24L160.72-3.24Q160.72-4.52 161.96-4.68L161.96-4.68Q162.92-4.36 163.56-4.14Q164.20-3.92 164.62-3.70Q165.04-3.48 165.34-3.24Q165.64-3 165.92-2.72L165.92-2.72Q167.80-1.96 169.96-1.96L169.96-1.96Q170.28-1.96 170.78-2.08Q171.28-2.20 171.80-2.38Q172.32-2.56 172.76-2.82Q173.20-3.08 173.44-3.32L173.44-3.32Q173.72-3.88 173.90-4.80Q174.08-5.72 174.08-6.92L174.08-6.92Q174.08-8 173.44-8.76Q172.80-9.52 171.84-10.04Q170.88-10.56 169.82-10.94Q168.76-11.32 167.92-11.64L167.92-11.64Q166.60-12.16 165.12-13.20L165.12-13.20Q163.44-15.88 163.44-17.16L163.44-17.16Q163.44-20 166.96-22.64L166.96-22.64Q170.48-23.84 171.52-23.84L171.52-23.84Q171.88-23.84 172.54-23.56Q173.20-23.28 173.86-22.86Q174.52-22.44 175-21.92Q175.48-21.40 175.48-20.92L175.48-20.92Q175.48-19.80 174.12-19.80L174.12-19.80Q174.04-19.80 173.62-20.06Q173.20-20.32 172.68-20.62Q172.16-20.92 171.62-21.16Q171.08-21.40 170.72-21.40L170.72-21.40Q169.88-21.40 169.10-21Q168.32-20.60 167.72-20Q167.12-19.40 166.76-18.70Q166.40-18 166.40-17.40L166.40-17.40Q166.40-16.36 167-15.48Q167.60-14.60 168.40-14.16L168.40-14.16Q168.56-14.08 169.20-13.86Q169.84-13.64 170.74-13.28Q171.64-12.92 172.66-12.40Q173.68-11.88 174.62-11.22Q175.56-10.56 176.26-9.70Q176.96-8.84 177.24-7.84Z M197.92-1.28L197.92-1.28Q197.76-0.84 197.30-0.44Q196.84-0.04 196.40-0.04L196.40-0.04Q195.88-0.04 195.60-0.46Q195.32-0.88 195.20-1.54Q195.08-2.20 195.04-3.04Q195-3.88 195-4.72L195-4.72Q194.84-5.12 194.84-5.76L194.84-5.76Q194.84-6.04 194.86-6.38Q194.88-6.72 194.88-6.96L194.88-6.96Q194.88-8.36 194.64-9.22Q194.40-10.08 194.02-10.56Q193.64-11.04 193.20-11.20Q192.76-11.36 192.36-11.36L192.36-11.36Q191.64-11.36 190.90-11.08Q190.16-10.80 189.54-10.44Q188.92-10.08 188.50-9.70Q188.08-9.32 187.96-9.12L187.96-9.12Q187.84-8.68 187.78-7.86Q187.72-7.04 187.68-5.96Q187.64-4.88 187.60-3.62Q187.56-2.36 187.52-1.04L187.52-1.04Q187.40-0.28 186.28-0.28L186.28-0.28Q185.36-0.28 185.08-0.94Q184.80-1.60 184.80-3.20L184.80-3.20Q184.80-3.60 184.82-3.76Q184.84-3.92 184.90-4.32Q184.96-4.72 185.04-5.58Q185.12-6.44 185.24-8.32L185.24-8.32Q185.28-9.20 185.32-9.88Q185.36-10.56 185.32-11.08L185.32-11.08Q185.32-11.52 185.32-11.80Q185.32-12.08 185.28-12.28L185.28-12.28Q185.32-12.32 185.36-12.98Q185.40-13.64 185.48-14.44Q185.56-15.24 185.64-15.98Q185.72-16.72 185.84-17L185.84-17Q185.84-17.20 185.82-17.36Q185.80-17.52 185.80-17.72L185.80-17.72Q185.80-18.36 185.86-19.30Q185.92-20.24 186.12-21.08Q186.32-21.92 186.72-22.52Q187.12-23.12 187.84-23.12L187.84-23.12Q189-23.12 189.04-21.88L189.04-21.88Q188.96-20.72 188.76-19.20Q188.56-17.68 188.24-15.20L188.24-15.20Q188.04-14.60 188.04-13L188.04-13L188.04-12.28Q188.12-12.32 188.40-12.52Q188.68-12.72 189.06-12.98Q189.44-13.24 189.88-13.46Q190.32-13.68 190.72-13.76L190.72-13.76Q191.64-13.92 192.64-13.92L192.64-13.92Q194.56-13.92 195.70-12.82Q196.84-11.72 197.36-9.16L197.36-9.16Q197.40-8.20 197.46-7.60Q197.52-7 197.58-6.26Q197.64-5.52 197.74-4.40Q197.84-3.28 197.92-1.28Z M215.32-0.92L215.32-0.92Q214.56-0.40 211.28 0.28L211.28 0.28L209.60-0.04Q209.28-0.16 208.46-0.64Q207.64-1.12 206.78-2.04Q205.92-2.96 205.26-4.36Q204.60-5.76 204.60-7.68L204.60-7.68Q204.60-9.24 205.48-10.46Q206.36-11.68 208.16-13.08L208.16-13.08Q209.12-13.32 210.04-13.32L210.04-13.32Q212.72-13.32 214.96-11.52L214.96-11.52Q216.88-8.88 216.88-5.72L216.88-5.72Q216.88-3.24 215.32-0.92ZM211.68-10.68L211.68-10.68Q211.08-10.96 210.40-10.96L210.40-10.96Q209.92-10.96 209.38-10.72Q208.84-10.48 208.38-10Q207.92-9.52 207.64-8.78Q207.36-8.04 207.36-7.04L207.36-7.04Q207.36-6.24 207.58-5.44Q207.80-4.64 208.26-3.96Q208.72-3.28 209.44-2.86Q210.16-2.44 211.16-2.44L211.16-2.44Q212.08-2.44 213.24-2.92L213.24-2.92Q214.24-4.16 214.24-5.88L214.24-5.88Q214.24-9.68 211.68-10.68Z M236.80-8.52L236.80-8.52L236.80-8.28Q236.76-7.68 236.66-7.08Q236.56-6.48 236.28-5.92L236.28-5.92L235.44-4.24Q235.12-3.80 234.44-3.32Q233.76-2.84 232.98-2.42Q232.20-2 231.42-1.72Q230.64-1.44 230.12-1.44L230.12-1.44L229.72-1.44Q229.56-1.44 229.22-1.38Q228.88-1.32 228.48-1.22Q228.08-1.12 227.70-1.06Q227.32-1 227.08-1L227.08-1Q226.76-1 226.64-1.04L226.64-1.04L226.52 1.68Q226.48 1.92 226.52 2.38Q226.56 2.84 226.56 3.62Q226.56 4.40 226.46 5.56Q226.36 6.72 226.12 8.36L226.12 8.36Q225.68 8.68 225.08 8.68L225.08 8.68Q224.48 8.68 224.18 8.36Q223.88 8.04 223.78 7.60Q223.68 7.16 223.68 6.70Q223.68 6.24 223.68 5.96L223.68 5.96Q223.68 5.56 223.72 5.24Q223.76 4.92 223.78 4.58Q223.80 4.24 223.84 3.88Q223.88 3.52 223.88 3L223.88 3Q223.88 2.56 223.86 2.12Q223.84 1.68 223.84 1.12L223.84 1.12Q223.84 0 223.90-0.86Q223.96-1.72 224.04-2.32L224.04-2.32Q223.84-3.12 223.84-4.56L223.84-4.56Q223.84-5.72 223.90-6.64Q223.96-7.56 224.12-8.16L224.12-8.16Q223.84-9.56 223.72-10.54Q223.60-11.52 223.60-12.08L223.60-12.08Q223.60-12.76 223.94-13.10Q224.28-13.44 225.08-13.44L225.08-13.44Q225.56-13.44 225.82-13.26Q226.08-13.08 226.44-12.28L226.44-12.28Q228.40-13.48 231.04-13.48L231.04-13.48Q233.64-13.48 235.16-12.42Q236.68-11.36 236.80-8.52ZM234.08-8.68L234.08-8.68Q234.08-10.72 231.80-11.04L231.80-11.04Q231.68-11.04 231.54-11.02Q231.40-11 231.28-11L231.28-11Q230.96-11 230.58-11.02Q230.20-11.04 229.76-11.08L229.76-11.08Q228.20-10.88 226.68-9.56L226.68-9.56Q226.72-9.04 226.74-8.44Q226.76-7.84 226.76-7.12L226.76-7.12Q226.68-6.28 226.62-5.64Q226.56-5 226.56-4.56L226.56-4.56Q226.56-3.88 226.64-3.68Q226.72-3.48 227.08-3.48L227.08-3.48Q227.20-3.48 227.54-3.54Q227.88-3.60 228.28-3.68Q228.68-3.76 229.06-3.82Q229.44-3.88 229.56-3.88L229.56-3.88Q230.96-3.96 231.84-4.54Q232.72-5.12 233.22-5.86Q233.72-6.60 233.90-7.40Q234.08-8.20 234.08-8.68Z M266.16-18.24L266.16-18.24Q266.16-17.56 265.94-17.14Q265.72-16.72 265.36-16.52Q265.00-16.32 264.58-16.26Q264.16-16.20 263.76-16.20L263.76-16.20Q263.20-16.60 262.82-17.10Q262.44-17.60 262.44-18.08L262.44-18.08Q262.44-18.44 262.76-18.90Q263.08-19.36 263.32-19.80L263.32-19.80L265.16-19.64Q266.16-19.40 266.16-18.24ZM264.80-12.44L264.80-12.44L264.80-12.28Q264.80-11.92 264.70-11.10Q264.60-10.28 264.40-8.96L264.40-8.96Q264.44-8.76 264.44-8.40L264.44-8.40Q264.44-8.16 264.28-7.32Q264.12-6.48 264.12-5.88L264.12-5.88Q264.12-5.76 264.14-5.64Q264.16-5.52 264.16-5.44L264.16-5.44Q264.04-4.88 264.04-3.84L264.04-3.84Q264.04-3.40 264.06-2.90Q264.08-2.40 264.12-1.84L264.12-1.84Q263.80-0.68 262.88-0.68L262.88-0.68Q262.08-0.68 261.78-1.54Q261.48-2.40 261.48-3.80L261.48-3.80Q261.48-5.20 261.58-6.36Q261.68-7.52 261.84-8.54Q262.00-9.56 262.18-10.50Q262.36-11.44 262.52-12.36L262.52-12.36Q262.92-12.96 263.64-12.96L263.64-12.96Q264.40-12.96 264.80-12.44Z M283.32-14.76L283.32-14.76Q283.64-14.52 283.64-13.84L283.64-13.84Q283.64-12.64 282.64-12.64L282.64-12.64L282.48-12.64Q282.48-12.64 281.90-12.58Q281.32-12.52 280.60-12.44Q279.88-12.36 279.22-12.26Q278.56-12.16 278.44-12.08L278.44-12.08L278.44-11.68Q278.44-11.24 278.36-10.50Q278.28-9.76 278.28-9.16L278.28-9.16Q278.28-8.96 278.30-8.76Q278.32-8.56 278.36-8.36L278.36-8.36Q278.20-7.88 278.20-6.76L278.20-6.76Q278.24-5.24 278.28-4.50Q278.32-3.76 278.52-3.40Q278.72-3.04 279.20-2.84Q279.68-2.64 280.60-2.24L280.60-2.24Q281.56-1.92 281.56-1.12L281.56-1.12Q281.56-0.60 281.18-0.24Q280.80 0.12 280.20 0.12L280.20 0.12Q279.92 0.12 279.36 0Q278.80-0.12 278.22-0.34Q277.64-0.56 277.16-0.86Q276.68-1.16 276.52-1.52L276.52-1.52Q276.04-2.56 275.76-3.54Q275.48-4.52 275.48-5.60L275.48-5.60Q275.48-6.72 275.52-7.28Q275.56-7.84 275.60-8.16Q275.64-8.48 275.68-8.74Q275.72-9 275.72-9.48L275.72-9.48Q275.72-9.80 275.70-10.14Q275.68-10.48 275.68-10.80L275.68-10.80Q275.68-11.24 275.70-11.54Q275.72-11.84 275.76-12.04L275.76-12.04Q274.68-11.96 272.56-11.40L272.56-11.40Q271.92-11.40 271.44-11.72Q270.96-12.04 270.96-12.64L270.96-12.64Q270.96-12.80 271.08-13.08Q271.20-13.36 271.50-13.62Q271.80-13.88 272.34-14.06Q272.88-14.24 273.68-14.24L273.68-14.24L273.92-14.24Q274.80-14.24 275.96-14.60L275.96-14.60Q275.96-14.64 275.98-14.94Q276.00-15.24 276.02-15.62Q276.04-16 276.06-16.36Q276.08-16.72 276.08-16.88L276.08-16.88L276.08-17.08Q276.12-17.52 276.24-18.34Q276.36-19.16 276.60-19.98Q276.84-20.80 277.22-21.40Q277.60-22 278.16-22L278.16-22Q279.24-22 279.48-21.04L279.48-21.04Q279.48-20.96 279.38-20.48Q279.28-20 279.16-19.40Q279.04-18.80 278.92-18.24Q278.80-17.68 278.80-17.52L278.80-17.52Q278.80-17.44 278.76-17.08Q278.72-16.72 278.70-16.28Q278.68-15.84 278.64-15.40Q278.60-14.96 278.60-14.76L278.60-14.76Q278.52-14.76 279.68-14.88L279.68-14.88Q279.88-14.88 280.06-14.90Q280.24-14.92 280.40-14.92L280.40-14.92Q280.52-14.92 280.60-14.90Q280.68-14.88 280.76-14.88L280.76-14.88Q281.12-14.92 281.44-14.94Q281.76-14.96 282.04-14.96L282.04-14.96Q282.92-14.96 283.32-14.76Z M294.68-3.36L294.68-3.36Q294.80-3.12 294.80-2.60L294.80-2.60Q294.80-1.92 294.72-1.28Q294.64-0.64 294.38 0.06Q294.12 0.76 293.62 1.58Q293.12 2.40 292.28 3.44L292.28 3.44Q291.96 3.56 291.72 3.56L291.72 3.56Q291.20 3.56 291.08 3L291.08 3Q291.08 2.88 291.26 2.52Q291.44 2.16 291.64 1.76Q291.84 1.36 292.04 1Q292.24 0.64 292.28 0.48L292.28 0.48Q292.44-0.16 292.52-0.96L292.52-0.96Q292.44-0.92 292.20-0.92L292.20-0.92Q291.72-0.92 291.08-1.38Q290.44-1.84 290.44-3L290.44-3Q290.60-3.28 290.78-3.58Q290.96-3.88 291.20-4.16Q291.44-4.44 291.78-4.62Q292.12-4.80 292.68-4.80L292.68-4.80Q293.88-4.80 294.68-3.36Z M339.16-10.56L339.08-7.68Q338.56-5.68 336.16-3.04L336.16-3.04Q335.80-2.88 335.30-2.52Q334.80-2.16 334.02-1.80Q333.24-1.44 332.14-1.16Q331.04-0.88 329.48-0.88L329.48-0.88Q326.48-0.88 324.40-2.48Q322.32-4.08 321.24-7.52L321.24-7.52Q321.20-7.80 321.20-8.08Q321.20-8.36 321.20-8.68L321.20-8.68Q321.20-11.32 321.74-13.26Q322.28-15.20 323.18-16.58Q324.08-17.96 325.20-18.88Q326.32-19.80 327.52-20.36L327.52-20.36Q329.64-20.92 331.52-20.92L331.52-20.92Q332.96-20.92 334.32-20.18Q335.68-19.44 336.72-18.10Q337.76-16.76 338.42-14.84Q339.08-12.92 339.16-10.56L339.16-10.56ZM336.32-7.60L336.32-7.60Q336.48-8.60 336.54-9.30Q336.60-10 336.60-10.44L336.60-10.44Q336.60-12.12 336.12-13.60Q335.64-15.08 334.96-16.18Q334.28-17.28 333.46-17.92Q332.64-18.56 332.00-18.56L332.00-18.56Q329.52-18.56 327.70-17.44Q325.88-16.32 325.16-14.32L325.16-14.32Q324.00-11.08 324.00-9.04L324.00-9.04Q324.00-7.96 324.36-6.94Q324.72-5.92 325.40-5.14Q326.08-4.36 327.04-3.88Q328.00-3.40 329.16-3.40L329.16-3.40Q330.88-3.40 332.06-3.72Q333.24-4.04 334.06-4.60Q334.88-5.16 335.40-5.92Q335.92-6.68 336.32-7.60Z M367.48-14.56L367.48-14.56Q367.44-14.32 367.28-13.70Q367.12-13.08 366.90-12.40Q366.68-11.72 366.50-11.08Q366.32-10.44 366.28-10.08L366.28-10.08Q365.96-9.28 365.62-8.40Q365.28-7.52 364.88-6.48L364.88-6.48Q364.88-6.36 364.60-5.66Q364.32-4.96 363.94-4.08Q363.56-3.20 363.18-2.38Q362.80-1.56 362.60-1.24L362.60-1.24Q361.52 0 360.24 0.32L360.24 0.32Q359.08-0.32 357.72-3.40L357.72-3.40Q357.48-3.96 357.00-5.30Q356.52-6.64 355.84-8.80L355.84-8.80Q354.96-7.04 354.14-5.60Q353.32-4.16 352.60-3.12Q351.88-2.08 351.24-1.48Q350.60-0.88 350.12-0.84L350.12-0.84Q349.60-1.16 348.92-2.08L348.92-2.08L347.72-3.68Q347.56-4.04 347.30-4.72Q347.04-5.40 346.76-6.14Q346.48-6.88 346.22-7.52Q345.96-8.16 345.80-8.48L345.80-8.48Q345.68-8.76 345.48-9.42Q345.28-10.08 345.10-10.82Q344.92-11.56 344.80-12.22Q344.68-12.88 344.68-13.20L344.68-13.20Q344.68-13.80 345.02-14.12Q345.36-14.44 345.88-14.44L345.88-14.44Q346.88-14.44 347.32-13.76L347.32-13.76L347.68-11.80Q347.92-10.52 348.32-9.76L348.32-9.76Q349.44-5.72 350.40-4.52L350.40-4.52Q350.52-4.64 350.80-5.12Q351.08-5.60 351.38-6.14Q351.68-6.68 351.94-7.16Q352.20-7.64 352.28-7.72L352.28-7.72Q352.76-8.12 353.36-9.40L353.36-9.40L354.08-10.92Q355.36-12.92 356.64-13.24L356.64-13.24Q356.72-13.16 356.92-12.72Q357.12-12.28 357.32-11.74Q357.52-11.20 357.74-10.74Q357.96-10.28 358.08-10.16L358.08-10.16Q358.56-9.04 359.00-7.30Q359.44-5.56 360.64-3L360.64-3Q361.28-4 361.54-4.68Q361.80-5.36 361.98-5.98Q362.16-6.60 362.34-7.36Q362.52-8.12 362.96-9.32L362.96-9.32Q363.40-10.52 363.58-11.06Q363.76-11.60 363.88-12.04Q364.00-12.48 364.18-13.10Q364.36-13.72 364.80-15.04L364.80-15.04Q365.40-15.92 366.12-15.92L366.12-15.92Q367.08-15.92 367.48-14.56Z M385.56-4.24L385.56-4.24L385.56-3.92Q385.56-3.72 385.58-3.14Q385.60-2.56 385.48-1.96Q385.36-1.36 385.06-0.88Q384.76-0.40 384.12-0.40L384.12-0.40Q382.96-0.40 382.72-1.32L382.72-1.32Q382.76-1.64 382.78-2.02Q382.80-2.40 382.80-2.84L382.80-2.84Q382.80-3.60 382.74-4.56Q382.68-5.52 382.60-6.68L382.60-6.68L382.28-8.60Q382.12-9.56 381.76-10.10Q381.40-10.64 380.96-10.90Q380.52-11.16 380.06-11.22Q379.60-11.28 379.28-11.28L379.28-11.28Q378.08-11.28 377.24-10.58Q376.40-9.88 375.84-7.84L375.84-7.84Q375.80-7.16 375.74-6.36Q375.68-5.56 375.52-4.60L375.52-4.60Q375.60-3.16 375.76-0.92L375.76-0.92Q375.76 0.32 374.36 0.32L374.36 0.32Q373.80 0.32 373.50 0Q373.20-0.32 373.06-0.82Q372.92-1.32 372.88-1.88Q372.84-2.44 372.84-2.92L372.84-2.92Q372.84-3.36 372.88-3.80Q372.92-4.24 373.00-4.72L373.00-4.72L373.36-8.84Q373.40-9.28 373.50-9.80Q373.60-10.32 373.76-10.96L373.76-10.96Q373.64-11.84 373.04-13.04L373.04-13.04L373.04-13.20Q373.04-13.64 373.46-14.04Q373.88-14.44 374.44-14.44L374.44-14.44Q375.00-14.44 375.36-14.06Q375.72-13.68 376.28-12.80L376.28-12.80Q376.60-13.08 377.34-13.34Q378.08-13.60 379.04-13.60L379.04-13.60Q381.20-13.60 382.76-12.68Q384.32-11.76 384.76-9.40L384.76-9.40Q384.88-8.48 384.96-7.90Q385.04-7.32 385.14-6.82Q385.24-6.32 385.34-5.74Q385.44-5.16 385.56-4.24Z M415.92-18.24L415.92-18.24Q415.92-17.56 415.70-17.14Q415.48-16.72 415.12-16.52Q414.76-16.32 414.34-16.26Q413.92-16.20 413.52-16.20L413.52-16.20Q412.96-16.60 412.58-17.10Q412.20-17.60 412.20-18.08L412.20-18.08Q412.20-18.44 412.52-18.90Q412.84-19.36 413.08-19.80L413.08-19.80L414.92-19.64Q415.92-19.40 415.92-18.24ZM414.56-12.44L414.56-12.44L414.56-12.28Q414.56-11.92 414.46-11.10Q414.36-10.28 414.16-8.96L414.16-8.96Q414.20-8.76 414.20-8.40L414.20-8.40Q414.20-8.16 414.04-7.32Q413.88-6.48 413.88-5.88L413.88-5.88Q413.88-5.76 413.90-5.64Q413.92-5.52 413.92-5.44L413.92-5.44Q413.80-4.88 413.80-3.84L413.80-3.84Q413.80-3.40 413.82-2.90Q413.84-2.40 413.88-1.84L413.88-1.84Q413.56-0.68 412.64-0.68L412.64-0.68Q411.84-0.68 411.54-1.54Q411.24-2.40 411.24-3.80L411.24-3.80Q411.24-5.20 411.34-6.36Q411.44-7.52 411.60-8.54Q411.76-9.56 411.94-10.50Q412.12-11.44 412.28-12.36L412.28-12.36Q412.68-12.96 413.40-12.96L413.40-12.96Q414.16-12.96 414.56-12.44Z M433.08-14.76L433.08-14.76Q433.40-14.52 433.40-13.84L433.40-13.84Q433.40-12.64 432.40-12.64L432.40-12.64L432.24-12.64Q432.24-12.64 431.66-12.58Q431.08-12.52 430.36-12.44Q429.64-12.36 428.98-12.26Q428.32-12.16 428.20-12.08L428.20-12.08L428.20-11.68Q428.20-11.24 428.12-10.50Q428.04-9.76 428.04-9.16L428.04-9.16Q428.04-8.96 428.06-8.76Q428.08-8.56 428.12-8.36L428.12-8.36Q427.96-7.88 427.96-6.76L427.96-6.76Q428.00-5.24 428.04-4.50Q428.08-3.76 428.28-3.40Q428.48-3.04 428.96-2.84Q429.44-2.64 430.36-2.24L430.36-2.24Q431.32-1.92 431.32-1.12L431.32-1.12Q431.32-0.60 430.94-0.24Q430.56 0.12 429.96 0.12L429.96 0.12Q429.68 0.12 429.12 0Q428.56-0.12 427.98-0.34Q427.40-0.56 426.92-0.86Q426.44-1.16 426.28-1.52L426.28-1.52Q425.80-2.56 425.52-3.54Q425.24-4.52 425.24-5.60L425.24-5.60Q425.24-6.72 425.28-7.28Q425.32-7.84 425.36-8.16Q425.40-8.48 425.44-8.74Q425.48-9 425.48-9.48L425.48-9.48Q425.48-9.80 425.46-10.14Q425.44-10.48 425.44-10.80L425.44-10.80Q425.44-11.24 425.46-11.54Q425.48-11.84 425.52-12.04L425.52-12.04Q424.44-11.96 422.32-11.40L422.32-11.40Q421.68-11.40 421.20-11.72Q420.72-12.04 420.72-12.64L420.72-12.64Q420.72-12.80 420.84-13.08Q420.96-13.36 421.26-13.62Q421.56-13.88 422.10-14.06Q422.64-14.24 423.44-14.24L423.44-14.24L423.68-14.24Q424.56-14.24 425.72-14.60L425.72-14.60Q425.72-14.64 425.74-14.94Q425.76-15.24 425.78-15.62Q425.80-16 425.82-16.36Q425.84-16.72 425.84-16.88L425.84-16.88L425.84-17.08Q425.88-17.52 426.00-18.34Q426.12-19.16 426.36-19.98Q426.60-20.80 426.98-21.40Q427.36-22 427.92-22L427.92-22Q429.00-22 429.24-21.04L429.24-21.04Q429.24-20.96 429.14-20.48Q429.04-20 428.92-19.40Q428.80-18.80 428.68-18.24Q428.56-17.68 428.56-17.52L428.56-17.52Q428.56-17.44 428.52-17.08Q428.48-16.72 428.46-16.28Q428.44-15.84 428.40-15.40Q428.36-14.96 428.36-14.76L428.36-14.76Q428.28-14.76 429.44-14.88L429.44-14.88Q429.64-14.88 429.82-14.90Q430.00-14.92 430.16-14.92L430.16-14.92Q430.28-14.92 430.36-14.90Q430.44-14.88 430.52-14.88L430.52-14.88Q430.88-14.92 431.20-14.94Q431.52-14.96 431.80-14.96L431.80-14.96Q432.68-14.96 433.08-14.76Z"/></g>
</svg>
</g><g opacity="1" transform="rotate(0 374.7897 367.3451)">
<svg width="338.2184" height="120" x="374.7897" y="367.3451" version="1.1" preserveAspectRatio="none" viewBox="2 -23.16 68.32 24.240000000000002">
  <g transform="matrix(1 0 0 1 0 0)" class="companyName"><path id="id-D6z1nYkh4" d="M24.80-14.12L24.80-14.12Q24.56-13.44 24.26-12.36Q23.96-11.28 23.64-9.84L23.64-9.84L22.36-6.52Q22.36-6.40 22.06-5.70Q21.76-5 21.38-4.14Q21-3.28 20.62-2.50Q20.24-1.72 20.08-1.44L20.08-1.44Q18.80-0.04 17.32 0.32L17.32 0.32Q16.16-0.28 15.14-2.06Q14.12-3.84 13.08-7.28L13.08-7.28L12.32-5.76Q11.96-5.04 11.34-4.20Q10.72-3.36 10.04-2.62Q9.36-1.88 8.72-1.36Q8.08-0.84 7.64-0.80L7.64-0.80Q6.76-1.32 5.72-2.66Q4.68-4 3.96-6.16L3.96-6.16Q3.72-6.92 3.54-7.32Q3.36-7.72 3.20-8.10Q3.04-8.48 2.86-8.98Q2.68-9.48 2.44-10.44L2.44-10.44Q2-12.20 2-12.88L2-12.88Q2-13.68 2.48-14.08Q2.96-14.48 3.64-14.48L3.64-14.48Q4.48-14.48 4.92-14.14Q5.36-13.80 5.60-13.20Q5.84-12.60 6.02-11.74Q6.20-10.88 6.52-9.88L6.52-9.88Q6.76-9.08 7.14-8.04Q7.52-7 8.04-5.72L8.04-5.72Q8.28-6.20 8.62-6.80Q8.96-7.40 9.40-8.12L9.40-8.12Q9.56-8.24 9.86-8.72Q10.16-9.20 10.42-9.72Q10.68-10.24 10.88-10.64Q11.08-11.04 11.04-11L11.04-11Q12.44-13.04 14.12-13.52L14.12-13.52Q14.24-13.40 14.48-12.94Q14.72-12.48 14.96-11.94Q15.20-11.40 15.44-10.94Q15.68-10.48 15.84-10.36L15.84-10.36Q16.04-9.80 16.20-9.30Q16.36-8.80 16.54-8.18Q16.72-7.56 17.02-6.72Q17.32-5.88 17.80-4.64L17.80-4.64Q18.60-6.40 18.68-7.32L18.68-7.32Q19.24-8.92 19.66-9.96Q20.08-11 20.28-11.44L20.28-11.44Q20.40-12.08 20.58-12.86Q20.76-13.64 21.08-14.32Q21.40-15 21.84-15.46Q22.28-15.92 22.96-15.92L22.96-15.92Q24.24-15.92 24.80-14.12Z M35.08-18.84L35.08-18.84Q35.16-18.52 35.16-18.24L35.16-18.24Q35.16-16.96 34.40-16.08L34.40-16.08Q33.20-15.60 32-15.60L32-15.60Q31.24-16.08 30.74-16.70Q30.24-17.32 30.24-17.92L30.24-17.92Q30.24-18.44 31.44-20.48L31.44-20.48Q31.96-20.40 32.54-20.36Q33.12-20.32 33.62-20.16Q34.12-20 34.50-19.70Q34.88-19.40 35.08-18.84ZM33.80-12.16L33.80-12.16L33.80-11.64Q33.80-11.44 33.80-11.20Q33.80-10.96 33.72-10.76L33.72-10.76L33.40-8.96L33.40-8.60Q33.40-8.36 33.36-7.96Q33.32-7.56 33.26-7.16Q33.20-6.76 33.16-6.40Q33.12-6.04 33.12-5.80L33.12-5.80Q33.12-5.60 33.14-5.48Q33.16-5.36 33.16-5.16L33.16-5.16Q33.16-4.80 33.08-4.38Q33-3.96 33-3.44L33-3.44Q33-2.96 33.12-2.44L33.12-2.44Q32.68-0.64 31.28-0.64L31.28-0.64Q29.32-0.64 29.32-4.32L29.32-4.32Q29.32-5.56 29.44-6.78Q29.56-8 29.72-9.04Q29.88-10.08 30.06-10.86Q30.24-11.64 30.36-12.08L30.36-12.08Q30.96-12.96 32.04-12.96L32.04-12.96Q33.08-12.96 33.80-12.16Z M51.64-4.60L51.64-4.60Q51.52-3.36 50.82-2.34Q50.12-1.32 49.40-0.28L49.40-0.28Q48.96 0.08 48.14 0.34Q47.32 0.60 46.52 0.76Q45.72 0.92 45.14 1Q44.56 1.08 44.64 1.08L44.64 1.08Q44.24 1.08 43.62 0.94Q43 0.80 42.42 0.66Q41.84 0.52 41.46 0.38Q41.08 0.24 41.12 0.24L41.12 0.24Q40.76 0.20 40.20-0.02Q39.64-0.24 39.14-0.54Q38.64-0.84 38.26-1.18Q37.88-1.52 37.88-1.84L37.88-1.84Q37.88-2.16 38.04-2.50Q38.20-2.84 38.48-3.14Q38.76-3.44 39.06-3.62Q39.36-3.80 39.68-3.80L39.68-3.80L42.44-2.76Q43.20-2.52 43.94-2.42Q44.68-2.32 45.40-2.32L45.40-2.32Q46.08-2.32 46.62-2.58Q47.16-2.84 47.44-3.20L47.44-3.20L48.04-4.40Q47.96-5.12 47.46-5.52Q46.96-5.92 46.22-6.20Q45.48-6.48 44.64-6.72Q43.80-6.96 43.08-7.36L43.08-7.36L41.36-8.44Q40.52-9.52 40.48-11.76L40.48-11.76Q40.72-13.16 41.68-14L41.68-14Q41.72-14.04 42.20-14.38Q42.68-14.72 43.68-15.36L43.68-15.36Q43.84-15.36 44.70-15.44Q45.56-15.52 47.08-15.68L47.08-15.68Q47.76-15.68 50.40-14.72L50.40-14.72Q50.92-14.20 50.92-13.28L50.92-13.28Q50.92-12.56 50.58-12.06Q50.24-11.56 49.60-11.56L49.60-11.56Q48.92-11.56 48.10-11.90Q47.28-12.24 46.56-12.24L46.56-12.24Q45.56-12.24 44.74-12.06Q43.92-11.88 43.92-11.24L43.92-11.24Q43.92-10.32 44.72-10.12L44.72-10.12Q50.84-8.76 51.64-4.60Z M70.32-1.72L70.32-1.72Q70.12-1.16 69.52-0.60Q68.92-0.04 68.36-0.04L68.36-0.04Q67.20-0.04 66.84-1.68Q66.48-3.32 66.48-6.32L66.48-6.32L66.48-6.68Q66.48-8.20 66.26-8.90Q66.04-9.60 65.96-9.80L65.96-9.80Q65.52-10.76 64.60-10.76L64.60-10.76Q64.04-10.76 63.44-10.54Q62.84-10.32 62.36-10.02Q61.88-9.72 61.54-9.44Q61.20-9.16 61.12-9.04L61.12-9.04Q61.04-8.76 60.98-8.08Q60.92-7.40 60.88-6.52Q60.84-5.64 60.80-4.72Q60.76-3.80 60.74-3.04Q60.72-2.28 60.72-1.84Q60.72-1.40 60.76-1.48L60.76-1.48Q60.64-0.40 59.04-0.40L59.04-0.40Q57.84-0.40 57.50-1.16Q57.16-1.92 57.16-3.76L57.16-3.76Q57.16-4.24 57.18-4.32Q57.20-4.40 57.24-4.70Q57.28-5 57.36-5.80Q57.44-6.60 57.56-8.52L57.56-8.52Q57.60-9.32 57.64-9.98Q57.68-10.64 57.64-11.12L57.64-11.12Q57.64-11.56 57.64-11.86Q57.64-12.16 57.60-12.36L57.60-12.36Q57.64-12.48 57.70-13.12Q57.76-13.76 57.82-14.52Q57.88-15.28 57.96-15.96Q58.04-16.64 58.12-16.88L58.12-16.88Q58.12-17.72 58.16-18.82Q58.20-19.92 58.44-20.88Q58.68-21.84 59.18-22.50Q59.68-23.16 60.60-23.16L60.60-23.16Q62.16-23.16 62.16-21.16L62.16-21.16Q62.16-20.04 61.72-17.96L61.72-17.96Q61.64-16.88 61.54-16.28Q61.44-15.68 61.36-15.24Q61.28-14.80 61.24-14.40Q61.20-14 61.20-13.28L61.20-13.28Q62.20-14.12 63.12-14.26Q64.04-14.40 64.84-14.40L64.84-14.40Q66.84-14.40 68.04-13.24Q69.24-12.08 69.84-9.40L69.84-9.40Q69.88-8.44 69.90-7.90Q69.92-7.36 69.98-6.70Q70.04-6.04 70.12-4.92Q70.20-3.80 70.32-1.72Z"/></g>
</svg>
</g><g opacity="1" transform="rotate(0 343.742 357.3451)">
<svg width="11.0477" height="140" x="343.742" y="357.3451" version="1.1" preserveAspectRatio="none" viewBox="6.48 -25.44 2.3200000000000003 29.4">
  <g transform="matrix(1 0 0 1 0 0)" class="icon3"><path id="id-lXek8z7fT1" d="M8.68-12.24L8.68-12.24Q8.68-12 8.74-11Q8.80-10 8.80-8.16L8.80-8.16Q8.80-6.80 8.60-6.32L8.60-6.32Q8.68-5.96 8.68-5.58Q8.68-5.20 8.68-4.76L8.68-4.76Q8.68-3.84 8.58-2.86Q8.48-1.88 8.44-0.96L8.44-0.96Q8.48-0.48 8.48-0.02Q8.48 0.44 8.48 0.88L8.48 0.88Q8.48 1.36 8.48 1.90Q8.48 2.44 8.42 2.90Q8.36 3.36 8.18 3.66Q8 3.96 7.64 3.96L7.64 3.96Q7 3.96 6.84 3.72L6.84 3.72Q6.48 2.24 6.48-0.04L6.48-0.04Q6.48-1.40 6.66-3.12Q6.84-4.84 6.84-6.56L6.84-6.56Q6.84-8.08 6.60-9.52L6.60-9.52Q6.60-9.60 6.64-10.30Q6.68-11 6.72-11.88Q6.76-12.76 6.84-13.54Q6.92-14.32 7.04-14.56L7.04-14.56Q6.84-15.36 6.84-17.48L6.84-17.48Q6.84-18.12 6.84-18.82Q6.84-19.52 6.86-20.40Q6.88-21.28 6.98-22.42Q7.08-23.56 7.28-25.16L7.28-25.16Q7.32-25.44 7.84-25.44L7.84-25.44Q8.60-25.44 8.70-25.04Q8.80-24.64 8.80-23.72L8.80-23.72Q8.80-23.12 8.76-22.32Q8.72-21.52 8.64-20.48L8.64-20.48Q8.68-19.20 8.68-17.14Q8.68-15.08 8.68-12.24Z"/></g>
</svg>
</g></svg></svg>