<svg version="1.1" preserveAspectRatio="none" xmlns="http://www.w3.org/2000/svg" width="500" height="500" viewBox="0 0 500 500"><rect width="100%" height="100%" fill="#FFFFFF" fill-opacity="1"/><svg viewBox="129.683 494.6238 386.2314 162" width="333" height="139.67274540599237" x="83.5px" y="180.1636px" xmlns="http://www.w3.org/2000/svg" xmlns:xlink="http://www.w3.org/1999/xlink" preserveAspectRatio="none"><defs></defs><style>.companyName {fill:#121212;fill-opacity:1;}.icon3-str {stroke:#5F5F5F;stroke-opacity:1;}.text {fill:#121212;fill-opacity:1;}</style><g opacity="1" transform="rotate(0 166.9759 632.6238)">
<svg width="311.6456" height="24" x="166.9759" y="632.6238" version="1.1" preserveAspectRatio="none" viewBox="1.48 -29.68 486.15999999999997 37.44">
  <g transform="matrix(1 0 0 1 0 0)" class="text"><path id="id-6izo4zJp24" d="M40.16-28L43-28L33.56 0L30.44 0L22.24-23.88L14 0L10.92 0L1.48-28L4.52-28L12.60-3.92L20.96-28L23.72-28L31.96-3.80L40.16-28Z M49.28 0L49.28-21.04L52.12-21.04L52.12 0L49.28 0ZM50.72-25.64Q49.84-25.64 49.24-26.24Q48.64-26.84 48.64-27.68L48.64-27.68Q48.64-28.48 49.24-29.08Q49.84-29.68 50.72-29.68L50.72-29.68Q51.60-29.68 52.20-29.10Q52.80-28.52 52.80-27.72L52.80-27.72Q52.80-26.84 52.20-26.24Q51.60-25.64 50.72-25.64L50.72-25.64Z M67.28 0.20Q64.72 0.20 62.38-0.54Q60.04-1.28 58.72-2.40L58.72-2.40L60-4.64Q61.32-3.60 63.32-2.94Q65.32-2.28 67.48-2.28L67.48-2.28Q70.36-2.28 71.74-3.18Q73.12-4.08 73.12-5.72L73.12-5.72Q73.12-6.88 72.36-7.54Q71.60-8.20 70.44-8.54Q69.28-8.88 67.36-9.20L67.36-9.20Q64.80-9.68 63.24-10.18Q61.68-10.68 60.58-11.88Q59.48-13.08 59.48-15.20L59.48-15.20Q59.48-17.84 61.68-19.52Q63.88-21.20 67.80-21.20L67.80-21.20Q69.84-21.20 71.88-20.66Q73.92-20.12 75.24-19.24L75.24-19.24L74-16.96Q71.40-18.76 67.80-18.76L67.80-18.76Q65.08-18.76 63.70-17.80Q62.32-16.84 62.32-15.28L62.32-15.28Q62.32-14.08 63.10-13.36Q63.88-12.64 65.04-12.30Q66.20-11.96 68.24-11.60L68.24-11.60Q70.76-11.12 72.28-10.64Q73.80-10.16 74.88-9Q75.96-7.84 75.96-5.80L75.96-5.80Q75.96-3.04 73.66-1.42Q71.36 0.20 67.28 0.20L67.28 0.20Z M93.52-21.20Q97.48-21.20 99.82-18.90Q102.16-16.60 102.16-12.20L102.16-12.20L102.16 0L99.32 0L99.32-11.92Q99.32-15.20 97.68-16.92Q96.04-18.64 93.00-18.64L93.00-18.64Q89.60-18.64 87.62-16.62Q85.64-14.60 85.64-11.04L85.64-11.04L85.64 0L82.80 0L82.80-29.68L85.64-29.68L85.64-17.36Q86.80-19.20 88.84-20.20Q90.88-21.20 93.52-21.20L93.52-21.20Z M123.56 0L123.56-21.04L126.40-21.04L126.40 0L123.56 0ZM125.00-25.64Q124.12-25.64 123.52-26.24Q122.92-26.84 122.92-27.68L122.92-27.68Q122.92-28.48 123.52-29.08Q124.12-29.68 125.00-29.68L125.00-29.68Q125.88-29.68 126.48-29.10Q127.08-28.52 127.08-27.72L127.08-27.72Q127.08-26.84 126.48-26.24Q125.88-25.64 125.00-25.64L125.00-25.64Z M146.00-3.32L147.00-1.28Q146.20-0.56 145.02-0.18Q143.84 0.20 142.56 0.20L142.56 0.20Q139.60 0.20 138.00-1.40Q136.40-3 136.40-5.92L136.40-5.92L136.40-18.64L132.64-18.64L132.64-21.04L136.40-21.04L136.40-25.64L139.24-25.64L139.24-21.04L145.64-21.04L145.64-18.64L139.24-18.64L139.24-6.08Q139.24-4.20 140.18-3.22Q141.12-2.24 142.88-2.24L142.88-2.24Q143.76-2.24 144.58-2.52Q145.40-2.80 146.00-3.32L146.00-3.32Z M154.48-4.16Q155.40-4.16 156-3.54Q156.60-2.92 156.60-2L156.60-2Q156.60-1.52 156.46-0.96Q156.32-0.40 156.04 0.32L156.04 0.32L154.36 5.84L152.44 5.84L153.80 0.04Q153.16-0.16 152.76-0.70Q152.36-1.24 152.36-2L152.36-2Q152.36-2.92 152.96-3.54Q153.56-4.16 154.48-4.16L154.48-4.16Z M184.64 0.24Q181.52 0.24 178.66-0.76Q175.80-1.76 174.24-3.40L174.24-3.40L175.40-5.68Q176.92-4.16 179.44-3.22Q181.96-2.28 184.64-2.28L184.64-2.28Q188.40-2.28 190.28-3.66Q192.16-5.04 192.16-7.24L192.16-7.24Q192.16-8.92 191.14-9.92Q190.12-10.92 188.64-11.46Q187.16-12 184.52-12.64L184.52-12.64Q181.36-13.44 179.48-14.18Q177.60-14.92 176.26-16.44Q174.92-17.96 174.92-20.56L174.92-20.56Q174.92-22.68 176.04-24.42Q177.16-26.16 179.48-27.20Q181.80-28.24 185.24-28.24L185.24-28.24Q187.64-28.24 189.94-27.58Q192.24-26.92 193.92-25.76L193.92-25.76L192.92-23.40Q191.16-24.56 189.16-25.14Q187.16-25.72 185.24-25.72L185.24-25.72Q181.56-25.72 179.70-24.30Q177.84-22.88 177.84-20.64L177.84-20.64Q177.84-18.96 178.86-17.94Q179.88-16.92 181.42-16.38Q182.96-15.84 185.56-15.20L185.56-15.20Q188.64-14.44 190.54-13.70Q192.44-12.96 193.76-11.46Q195.08-9.96 195.08-7.40L195.08-7.40Q195.08-5.28 193.94-3.54Q192.80-1.80 190.44-0.78Q188.08 0.24 184.64 0.24L184.64 0.24Z M213.24-21.20Q217.20-21.20 219.54-18.90Q221.88-16.60 221.88-12.20L221.88-12.20L221.88 0L219.04 0L219.04-11.92Q219.04-15.20 217.40-16.92Q215.76-18.64 212.72-18.64L212.72-18.64Q209.32-18.64 207.34-16.62Q205.36-14.60 205.36-11.04L205.36-11.04L205.36 0L202.52 0L202.52-29.68L205.36-29.68L205.36-17.36Q206.52-19.20 208.56-20.20Q210.60-21.20 213.24-21.20L213.24-21.20Z M239.88 0.20Q236.84 0.20 234.40-1.18Q231.96-2.56 230.56-5Q229.16-7.44 229.16-10.52L229.16-10.52Q229.16-13.60 230.56-16.04Q231.96-18.48 234.40-19.84Q236.84-21.20 239.88-21.20L239.88-21.20Q242.92-21.20 245.36-19.84Q247.80-18.48 249.18-16.04Q250.56-13.60 250.56-10.52L250.56-10.52Q250.56-7.44 249.18-5Q247.80-2.56 245.36-1.18Q242.92 0.20 239.88 0.20L239.88 0.20ZM239.88-2.32Q242.12-2.32 243.90-3.34Q245.68-4.36 246.68-6.24Q247.68-8.12 247.68-10.52L247.68-10.52Q247.68-12.92 246.68-14.80Q245.68-16.68 243.90-17.70Q242.12-18.72 239.88-18.72L239.88-18.72Q237.64-18.72 235.86-17.70Q234.08-16.68 233.06-14.80Q232.04-12.92 232.04-10.52L232.04-10.52Q232.04-8.12 233.06-6.24Q234.08-4.36 235.86-3.34Q237.64-2.32 239.88-2.32L239.88-2.32Z M268.80-21.20Q271.76-21.20 274.16-19.86Q276.56-18.52 277.92-16.08Q279.28-13.64 279.28-10.52L279.28-10.52Q279.28-7.36 277.92-4.92Q276.56-2.48 274.18-1.14Q271.80 0.20 268.80 0.20L268.80 0.20Q266.24 0.20 264.18-0.86Q262.12-1.92 260.80-3.96L260.80-3.96L260.80 7.76L257.96 7.76L257.96-21.04L260.68-21.04L260.68-16.88Q261.96-18.96 264.06-20.08Q266.16-21.20 268.80-21.20L268.80-21.20ZM268.60-2.32Q270.80-2.32 272.60-3.34Q274.40-4.36 275.42-6.24Q276.44-8.12 276.44-10.52L276.44-10.52Q276.44-12.92 275.42-14.78Q274.40-16.64 272.60-17.68Q270.80-18.72 268.60-18.72L268.60-18.72Q266.36-18.72 264.58-17.68Q262.80-16.64 261.78-14.78Q260.76-12.92 260.76-10.52L260.76-10.52Q260.76-8.12 261.78-6.24Q262.80-4.36 264.58-3.34Q266.36-2.32 268.60-2.32L268.60-2.32Z M298.76 0L298.76-21.04L301.60-21.04L301.60 0L298.76 0ZM300.20-25.64Q299.32-25.64 298.72-26.24Q298.12-26.84 298.12-27.68L298.12-27.68Q298.12-28.48 298.72-29.08Q299.32-29.68 300.20-29.68L300.20-29.68Q301.08-29.68 301.68-29.10Q302.28-28.52 302.28-27.72L302.28-27.72Q302.28-26.84 301.68-26.24Q301.08-25.64 300.20-25.64L300.20-25.64Z M321.20-3.32L322.20-1.28Q321.40-0.56 320.22-0.18Q319.04 0.20 317.76 0.20L317.76 0.20Q314.80 0.20 313.20-1.40Q311.60-3 311.60-5.92L311.60-5.92L311.60-18.64L307.84-18.64L307.84-21.04L311.60-21.04L311.60-25.64L314.44-25.64L314.44-21.04L320.84-21.04L320.84-18.64L314.44-18.64L314.44-6.08Q314.44-4.20 315.38-3.22Q316.32-2.24 318.08-2.24L318.08-2.24Q318.96-2.24 319.78-2.52Q320.60-2.80 321.20-3.32L321.20-3.32Z M329.68-4.16Q330.60-4.16 331.20-3.54Q331.80-2.92 331.80-2L331.80-2Q331.80-1.52 331.66-0.96Q331.52-0.40 331.24 0.32L331.24 0.32L329.56 5.84L327.64 5.84L329.00 0.04Q328.36-0.16 327.96-0.70Q327.56-1.24 327.56-2L327.56-2Q327.56-2.92 328.16-3.54Q328.76-4.16 329.68-4.16L329.68-4.16Z M364.36 0.24Q360.20 0.24 356.82-1.62Q353.44-3.48 351.54-6.72Q349.64-9.96 349.64-14L349.64-14Q349.64-18.04 351.54-21.28Q353.44-24.52 356.82-26.38Q360.20-28.24 364.36-28.24L364.36-28.24Q368.52-28.24 371.86-26.40Q375.20-24.56 377.12-21.30Q379.04-18.04 379.04-14L379.04-14Q379.04-9.96 377.12-6.70Q375.20-3.44 371.86-1.60Q368.52 0.24 364.36 0.24L364.36 0.24ZM364.36-2.40Q367.68-2.40 370.36-3.90Q373.04-5.40 374.56-8.06Q376.08-10.72 376.08-14L376.08-14Q376.08-17.28 374.56-19.94Q373.04-22.60 370.36-24.10Q367.68-25.60 364.36-25.60L364.36-25.60Q361.04-25.60 358.34-24.10Q355.64-22.60 354.10-19.94Q352.56-17.28 352.56-14L352.56-14Q352.56-10.72 354.10-8.06Q355.64-5.40 358.34-3.90Q361.04-2.40 364.36-2.40L364.36-2.40Z M414.96-21.04L417.56-21.04L409.60 0L406.92 0L400.28-17.24L393.64 0L390.96 0L383.04-21.04L385.76-21.04L392.36-3.16L399.12-21.04L401.56-21.04L408.28-3.16L414.96-21.04Z M434.16-21.20Q438.12-21.20 440.46-18.90Q442.80-16.60 442.80-12.20L442.80-12.20L442.80 0L439.96 0L439.96-11.92Q439.96-15.20 438.32-16.92Q436.68-18.64 433.64-18.64L433.64-18.64Q430.24-18.64 428.26-16.62Q426.28-14.60 426.28-11.04L426.28-11.04L426.28 0L423.44 0L423.44-21.04L426.16-21.04L426.16-17.16Q427.32-19.08 429.38-20.14Q431.44-21.20 434.16-21.20L434.16-21.20Z M464.20 0L464.20-21.04L467.04-21.04L467.04 0L464.20 0ZM465.64-25.64Q464.76-25.64 464.16-26.24Q463.56-26.84 463.56-27.68L463.56-27.68Q463.56-28.48 464.16-29.08Q464.76-29.68 465.64-29.68L465.64-29.68Q466.52-29.68 467.12-29.10Q467.72-28.52 467.72-27.72L467.72-27.72Q467.72-26.84 467.12-26.24Q466.52-25.64 465.64-25.64L465.64-25.64Z M486.64-3.32L487.64-1.28Q486.84-0.56 485.66-0.18Q484.48 0.20 483.20 0.20L483.20 0.20Q480.24 0.20 478.64-1.40Q477.04-3 477.04-5.92L477.04-5.92L477.04-18.64L473.28-18.64L473.28-21.04L477.04-21.04L477.04-25.64L479.88-25.64L479.88-21.04L486.28-21.04L486.28-18.64L479.88-18.64L479.88-6.08Q479.88-4.20 480.82-3.22Q481.76-2.24 483.52-2.24L483.52-2.24Q484.40-2.24 485.22-2.52Q486.04-2.80 486.64-3.32L486.64-3.32Z"/></g>
</svg>
</g><g opacity="1" transform="rotate(0 129.683 494.6238)">
<svg width="386.2314" height="120" x="129.683" y="494.6238" version="1.1" preserveAspectRatio="none" viewBox="0.4 -27.24 89.19999999999999 27.72">
  <g transform="matrix(1 0 0 1 0 0)" class="companyName"><path id="id-D6z1nYkh4" d="M2.28-17.60L0.40-17.60L0.40-18.40L11.20-18.40L11.20-17.60L9.08-17.60L13.40-7.92L16-14.44L14.68-17.60L13.20-17.60L13.20-18.40L23.20-18.40L23.20-17.60L21.44-17.60L25.76-7.92L29.48-17.60L26.28-17.60L26.28-18.40L32.80-18.40L32.80-17.60L30.40-17.60L23.64 0L22.80 0L16.48-13.24L11.24 0L10.40 0L2.28-17.60Z M42.80-18.40L42.80-0.80L44.80-0.80L44.80 0L34.80 0L34.80-0.80L36.80-0.80L36.80-17.60L35.20-17.60L35.20-18.40L42.80-18.40ZM43.16-23.70Q43.16-22.24 42.14-21.22Q41.12-20.20 39.66-20.20Q38.20-20.20 37.16-21.22Q36.12-22.24 36.12-23.70Q36.12-25.16 37.16-26.20Q38.20-27.24 39.66-27.24Q41.12-27.24 42.14-26.20Q43.16-25.16 43.16-23.70Z M56.40-0.32L56.40-0.32Q60.56-0.32 60.56-2.60L60.56-2.60Q60.56-3.88 59.12-4.70Q57.68-5.52 55.64-6.04Q53.60-6.56 51.62-7.24Q49.64-7.92 48.34-9.40Q47.04-10.88 47.28-13.28Q47.52-15.68 49.74-17.24Q51.96-18.80 55.22-18.80Q58.48-18.80 60.48-17.76Q62.48-16.72 62.72-14.96L62.72-14.96Q62.88-13.88 62.38-12.96Q61.88-12.04 60.74-12Q59.60-11.96 58.86-12.60Q58.12-13.24 58.16-14.08Q58.20-14.92 58.80-15.58Q59.40-16.24 59.40-16.64L59.40-16.64Q59.40-17.32 58.10-17.66Q56.80-18 55.10-18Q53.40-18 52.32-17.24Q51.24-16.48 51.24-15.36Q51.24-14.24 52.58-13.44Q53.92-12.64 55.84-12.14Q57.76-11.64 59.66-11.02Q61.56-10.40 62.90-9.04Q64.24-7.68 64.24-5.60L64.24-5.60Q64.24-2.84 62.28-1.18Q60.32 0.48 56.36 0.48Q52.40 0.48 49.94-0.72Q47.48-1.92 47.24-3.80L47.24-3.80Q47.08-4.88 47.60-5.80Q48.12-6.72 49.24-6.76Q50.36-6.80 51.10-6.16Q51.84-5.52 51.80-4.68Q51.76-3.84 51.16-3.18Q50.56-2.52 50.56-2.12L50.56-2.12Q50.56-1.32 52.42-0.82Q54.28-0.32 56.40-0.32Z M87.60-11.12L87.60-0.80L89.60-0.80L89.60 0L79.60 0L79.60-0.80L81.60-0.80L81.60-12Q81.60-14.84 80.76-16.04Q79.92-17.24 78.24-17.24L78.24-17.24Q75.96-17.24 74.60-14.84L74.60-14.84L74.60-0.80L76.60-0.80L76.60 0L66.60 0L66.60-0.80L68.60-0.80L68.60-26L66.60-26L66.60-26.80L74.60-26.80L74.60-16.32Q75.36-17.40 76.96-18.12Q78.56-18.84 80.48-18.84L80.48-18.84Q87.60-18.84 87.60-11.12L87.60-11.12Z"/></g>
</svg>
</g></svg></svg>