<svg version="1.1" preserveAspectRatio="none" xmlns="http://www.w3.org/2000/svg" width="500" height="500" viewBox="0 0 500 500"><rect width="100%" height="100%" fill="#222222" fill-opacity="1"/><svg viewBox="71.2502 434.4 452.0621 288.4" width="333" height="212.44249407327" x="83.5px" y="143.7788px" xmlns="http://www.w3.org/2000/svg" xmlns:xlink="http://www.w3.org/1999/xlink" preserveAspectRatio="none"><defs></defs><style>.a7KDWqqaqfillColor {fill:#ebebeb;fill-opacity:0;}.aZzOTVRhffillColor {fill:#ebebeb;fill-opacity:0;}.companyName {fill:#F3F3F3;fill-opacity:1;}.icon3-str {stroke:#A6A6A6;stroke-opacity:1;}.shapeStroke-str {stroke:#F3F3F3;stroke-opacity:1;}.text {fill:#F3F3F3;fill-opacity:1;}</style><g opacity="1" transform="rotate(0 91.2502 454.4)">
<svg width="432.0621" height="268.4" x="91.2502" y="454.4" version="1.1" preserveAspectRatio="none" viewBox="0 0 432.0621 268.4">
  <defs><rect x="2.013" y="2.013" width="428.0361" height="264.37399999999997" rx="0%" ry="0%" id="id-ZzOTVRhf1738614860451"></rect></defs><use class="aZzOTVRhffillColor shapeStroke-str" style="stroke-width:4.026;" xlink:href="#id-ZzOTVRhf1738614860451"></use>
</svg>
</g><g opacity="1" transform="rotate(0 71.2502 434.4)">
<svg width="432.0621" height="268.4" x="71.2502" y="434.4" version="1.1" preserveAspectRatio="none" viewBox="0 0 432.0621 268.4">
  <defs><rect x="2.013" y="2.013" width="428.0361" height="264.37399999999997" rx="0px" ry="0px" id="id-7KDWqqaq1738614860451"></rect></defs><use class="a7KDWqqaqfillColor shapeStroke-str" style="stroke-width:4.026;" xlink:href="#id-7KDWqqaq1738614860451"></use>
</svg>
</g><g opacity="1" transform="rotate(0 138.628 636.4)">
<svg width="317.3065" height="26.4" x="138.628" y="636.4" version="1.1" preserveAspectRatio="none" viewBox="1.64 -31 468.24 38.96">
  <g transform="matrix(1 0 0 1 0 0)" class="text"><path id="id-6izo4zJp24" d="M38.72-28.80L27.32 1.28L20.56-16L13.16 1.36L1.64-28.80L6.16-28.80L13.64-7.76L18.64-20.88L15.56-28.80L19.40-28.80L27.44-8.20L34.56-28.80L38.72-28.80Z M45.40-16.56L49.12-16.56L49.12 0L45.40 0L45.40-16.56ZM45.12-22.52Q45.12-23.40 45.80-24Q46.48-24.60 47.36-24.60L47.36-24.60Q48.24-24.60 48.90-24Q49.56-23.40 49.56-22.52L49.56-22.52Q49.56-21.64 48.90-21.04Q48.24-20.44 47.36-20.44L47.36-20.44Q46.48-20.44 45.80-21.04Q45.12-21.64 45.12-22.52L45.12-22.52Z M62.68 0.36Q60.84 0.36 59.18-0.28Q57.52-0.92 56.48-2.16L56.48-2.16L58.08-4.32Q59.08-3.36 60.18-2.84Q61.28-2.32 62.36-2.32L62.36-2.32Q63.68-2.32 64.52-2.84Q65.36-3.36 65.36-4.44L65.36-4.44Q65.36-5.28 64.84-5.80Q64.32-6.32 63.66-6.56Q63-6.80 61.44-7.28L61.44-7.28Q57.20-8.64 57.20-12.12L57.20-12.12Q57.20-14.20 58.74-15.68Q60.28-17.16 63.04-17.16L63.04-17.16Q64.80-17.16 66.16-16.72Q67.52-16.28 68.68-15.32L68.68-15.32L67.20-13.04Q66.56-13.72 65.58-14.12Q64.60-14.52 63.72-14.56L63.72-14.56Q62.60-14.56 61.80-14.02Q61-13.48 61-12.56L61-12.56Q61-11.80 61.52-11.30Q62.04-10.80 62.60-10.58Q63.16-10.36 64.80-9.84L64.80-9.84Q66.84-9.16 67.98-8.08Q69.12-7 69.12-5.16L69.12-5.16Q69.12-2.76 67.44-1.20Q65.76 0.36 62.68 0.36L62.68 0.36Z M87-17.20Q89.32-17.20 90.84-15.82Q92.36-14.44 92.40-12.24L92.40-12.24L92.40 0L88.64 0L88.64-10.96Q88.56-12.36 87.80-13.16Q87.04-13.96 85.52-14L85.52-14Q84.08-14 82.92-13.20Q81.76-12.40 81.10-10.96Q80.44-9.52 80.44-7.76L80.44-7.76L80.44 0L76.72 0L76.72-31L80.36-31L80.36-13.56Q81.28-15.20 83.02-16.20Q84.76-17.20 87-17.20L87-17.20Z M116.28-16.56L120.00-16.56L120.00 0L116.28 0L116.28-16.56ZM116.00-22.52Q116.00-23.40 116.68-24Q117.36-24.60 118.24-24.60L118.24-24.60Q119.12-24.60 119.78-24Q120.44-23.40 120.44-22.52L120.44-22.52Q120.44-21.64 119.78-21.04Q119.12-20.44 118.24-20.44L118.24-20.44Q117.36-20.44 116.68-21.04Q116.00-21.64 116.00-22.52L116.00-22.52Z M130.48-23.84L134.24-23.84L134.24-16.52L138.76-16.52L138.76-13.56L134.24-13.56L134.24 0L130.48 0L130.48-13.56L127.44-13.56L127.44-16.52L130.48-16.52L130.48-23.84Z M149.08-3.52L146.76 2.08L145.60 4.88L142.56 4.88L143.60 2.08Q145.40-2.76 145.68-3.52L145.68-3.52L149.08-3.52Z M187.12-23.76Q185.56-24.60 183.80-25.12Q182.04-25.64 180.48-25.64L180.48-25.64Q178.12-25.64 176.74-24.58Q175.36-23.52 175.36-21.68L175.36-21.68Q175.36-19.88 176.98-18.74Q178.60-17.60 181.60-16.48L181.60-16.48Q183.84-15.68 185.38-14.74Q186.92-13.80 187.94-12.14Q188.96-10.48 188.96-7.92L188.96-7.92Q188.96-5.60 187.80-3.72Q186.64-1.84 184.50-0.76Q182.36 0.32 179.48 0.32L179.48 0.32Q176.80 0.32 174.32-0.54Q171.84-1.40 169.96-2.72L169.96-2.72L171.68-5.80Q173.16-4.68 175.24-3.90Q177.32-3.12 179.12-3.12L179.12-3.12Q181.44-3.12 183.18-4.32Q184.92-5.52 184.92-7.88L184.92-7.88Q184.92-9.88 183.46-11.06Q182.00-12.24 179.36-13.28L179.36-13.28Q176.92-14.20 175.30-15.08Q173.68-15.96 172.52-17.50Q171.36-19.04 171.36-21.36L171.36-21.36Q171.36-24.76 173.74-26.86Q176.12-28.96 179.92-29.08L179.92-29.08Q184.60-29.08 188.60-26.76L188.60-26.76L187.12-23.76Z M207.20-17.20Q209.52-17.20 211.04-15.82Q212.56-14.44 212.60-12.24L212.60-12.24L212.60 0L208.84 0L208.84-10.96Q208.76-12.36 208.00-13.16Q207.24-13.96 205.72-14L205.72-14Q204.28-14 203.12-13.20Q201.96-12.40 201.30-10.96Q200.64-9.52 200.64-7.76L200.64-7.76L200.64 0L196.92 0L196.92-31L200.56-31L200.56-13.56Q201.48-15.20 203.22-16.20Q204.96-17.20 207.20-17.20L207.20-17.20Z M220.00-8.44Q220.00-10.88 221.18-12.90Q222.36-14.92 224.46-16.08Q226.56-17.24 229.20-17.24L229.20-17.24Q231.84-17.24 233.90-16.08Q235.96-14.92 237.10-12.92Q238.24-10.92 238.24-8.44L238.24-8.44Q238.24-5.96 237.10-3.94Q235.96-1.92 233.88-0.76Q231.80 0.40 229.12 0.40L229.12 0.40Q226.52 0.40 224.44-0.70Q222.36-1.80 221.18-3.80Q220.00-5.80 220.00-8.44L220.00-8.44ZM223.76-8.40Q223.76-6.84 224.46-5.52Q225.16-4.20 226.38-3.44Q227.60-2.68 229.08-2.68L229.08-2.68Q231.40-2.68 232.92-4.32Q234.44-5.96 234.44-8.40L234.44-8.40Q234.44-10.84 232.92-12.50Q231.40-14.16 229.08-14.16L229.08-14.16Q227.56-14.16 226.36-13.38Q225.16-12.60 224.46-11.28Q223.76-9.96 223.76-8.40L223.76-8.40Z M256.12-17.24Q258.44-17.24 260.32-16.12Q262.20-15 263.28-12.98Q264.36-10.96 264.36-8.32L264.36-8.32Q264.36-5.72 263.20-3.74Q262.04-1.76 260.00-0.68Q257.96 0.40 255.44 0.40L255.44 0.40Q253.64 0.40 252.00-0.38Q250.36-1.16 249.36-2.48L249.36-2.48L249.36 7.96L245.64 7.96L245.64-16.84L248.88-16.84L249.20-14.04Q250.48-15.48 252.26-16.36Q254.04-17.24 256.12-17.24L256.12-17.24ZM254.72-2.60Q256.28-2.60 257.62-3.34Q258.96-4.08 259.76-5.38Q260.56-6.68 260.56-8.28L260.56-8.28Q260.56-9.92 259.82-11.24Q259.08-12.56 257.80-13.32Q256.52-14.08 254.96-14.08L254.96-14.08Q252.84-14.08 251.34-12.90Q249.84-11.72 249.36-9.72L249.36-9.72L249.36-6.96Q249.68-5.04 251.18-3.82Q252.68-2.60 254.72-2.60L254.72-2.60Z M286.80-16.56L290.52-16.56L290.52 0L286.80 0L286.80-16.56ZM286.52-22.52Q286.52-23.40 287.20-24Q287.88-24.60 288.76-24.60L288.76-24.60Q289.64-24.60 290.30-24Q290.96-23.40 290.96-22.52L290.96-22.52Q290.96-21.64 290.30-21.04Q289.64-20.44 288.76-20.44L288.76-20.44Q287.88-20.44 287.20-21.04Q286.52-21.64 286.52-22.52L286.52-22.52Z M301.00-23.84L304.76-23.84L304.76-16.52L309.28-16.52L309.28-13.56L304.76-13.56L304.76 0L301.00 0L301.00-13.56L297.96-13.56L297.96-16.52L301.00-16.52L301.00-23.84Z M319.60-3.52L317.28 2.08L316.12 4.88L313.08 4.88L314.12 2.08Q315.92-2.76 316.20-3.52L316.20-3.52L319.60-3.52Z M340.88-14.44Q340.88-18.40 342.88-21.80Q344.88-25.20 348.26-27.22Q351.64-29.24 355.64-29.24L355.64-29.24Q359.60-29.24 363.00-27.22Q366.40-25.20 368.42-21.80Q370.44-18.40 370.44-14.44L370.44-14.44Q370.44-10.44 368.44-7.04Q366.44-3.64 363.02-1.66Q359.60 0.32 355.64 0.32L355.64 0.32Q351.64 0.32 348.24-1.64Q344.84-3.60 342.86-6.98Q340.88-10.36 340.88-14.44L340.88-14.44ZM344.88-14.40Q344.88-11.44 346.32-8.92Q347.76-6.40 350.26-4.92Q352.76-3.44 355.72-3.44L355.72-3.44Q358.68-3.44 361.14-4.90Q363.60-6.36 365.02-8.90Q366.44-11.44 366.44-14.44L366.44-14.44Q366.44-17.44 365.00-20Q363.56-22.56 361.08-24.04Q358.60-25.52 355.64-25.52L355.64-25.52Q352.68-25.52 350.20-24.02Q347.72-22.52 346.30-19.96Q344.88-17.40 344.88-14.40L344.88-14.40Z M397.76-16.56L401.44-16.56L393.80 1L388.48-10.36L383.64 1L375.96-16.56L379.64-16.56L384.08-6.52L387.16-13.72L385.84-16.56L389.08-16.56L393.56-6.28L397.76-16.56Z M418.12-17.20Q420.44-17.20 421.96-15.82Q423.48-14.44 423.52-12.24L423.52-12.24L423.52 0L419.76 0L419.76-10.96Q419.68-12.36 418.92-13.16Q418.16-13.96 416.64-14L416.64-14Q414.44-14 413.00-12.24Q411.56-10.48 411.56-7.76L411.56-7.76L411.56 0L407.84 0L407.84-16.56L411.20-16.56L411.44-13.36Q412.32-15.16 414.08-16.18Q415.84-17.20 418.12-17.20L418.12-17.20Z M447.40-16.56L451.12-16.56L451.12 0L447.40 0L447.40-16.56ZM447.12-22.52Q447.12-23.40 447.80-24Q448.48-24.60 449.36-24.60L449.36-24.60Q450.24-24.60 450.90-24Q451.56-23.40 451.56-22.52L451.56-22.52Q451.56-21.64 450.90-21.04Q450.24-20.44 449.36-20.44L449.36-20.44Q448.48-20.44 447.80-21.04Q447.12-21.64 447.12-22.52L447.12-22.52Z M461.60-23.84L465.36-23.84L465.36-16.52L469.88-16.52L469.88-13.56L465.36-13.56L465.36 0L461.60 0L461.60-13.56L458.56-13.56L458.56-16.52L461.60-16.52L461.60-23.84Z"/></g>
</svg>
</g><g opacity="1" transform="rotate(0 131.2502 494.4)">
<svg width="332.0621" height="120" x="131.2502" y="494.4" version="1.1" preserveAspectRatio="none" viewBox="0.8 -28.48 80.12 28.96">
  <g transform="matrix(1 0 0 1 0 0)" class="companyName"><path id="id-D6z1nYkh4" d="M4.28-20L0.80-20L7.72 0L9.88 0L14.52-13.40L14.68-13.40L19.88 0L21.76 0L29.04-20L26.96-20L21.52-5.04L21.36-5.04L15.68-20L14.88-20L9.64-4.92L9.48-4.92L4.28-20Z M37.72-20L34.32-20L34.32 0L37.72 0L37.72-20ZM33.84-26.32L33.84-26.32Q33.84-25.44 34.48-24.80Q35.12-24.16 36-24.16L36-24.16Q36.88-24.16 37.52-24.80Q38.16-25.44 38.16-26.32L38.16-26.32Q38.16-27.20 37.52-27.84Q36.88-28.48 36-28.48L36-28.48Q35.12-28.48 34.48-27.84Q33.84-27.20 33.84-26.32Z M55.84-15.44L58.12-15.44Q58.12-16.52 57.56-17.44Q57-18.36 56.02-19.02Q55.04-19.68 53.74-20.06Q52.44-20.44 50.96-20.44L50.96-20.44Q49.56-20.44 48.34-20.08Q47.12-19.72 46.22-19Q45.32-18.28 44.80-17.22Q44.28-16.16 44.28-14.76L44.28-14.76Q44.28-12.84 45.16-11.72Q46.04-10.60 47.36-9.92Q48.68-9.24 50.22-8.82Q51.76-8.40 53.08-7.90Q54.40-7.40 55.28-6.64Q56.16-5.88 56.16-4.56L56.16-4.56Q56.16-4 55.98-3.40Q55.80-2.80 55.32-2.30Q54.84-1.80 54-1.46Q53.16-1.12 51.88-1.12L51.88-1.12Q50.28-1.12 49.18-1.62Q48.08-2.12 47.38-2.82Q46.68-3.52 46.38-4.24Q46.08-4.96 46.08-5.44L46.08-5.44L43.48-5.44Q43.48-4.32 44-3.26Q44.52-2.20 45.58-1.36Q46.64-0.52 48.18-0.02Q49.72 0.48 51.76 0.48L51.76 0.48Q55.44 0.48 57.30-1.14Q59.16-2.76 59.16-5.40L59.16-5.40Q59.16-7.32 58.26-8.48Q57.36-9.64 56-10.34Q54.64-11.04 53.06-11.48Q51.48-11.92 50.12-12.40Q48.76-12.88 47.86-13.56Q46.96-14.24 46.96-15.48L46.96-15.48Q46.96-16 47.16-16.58Q47.36-17.16 47.84-17.66Q48.32-18.16 49.12-18.50Q49.92-18.84 51.12-18.84L51.12-18.84Q52.32-18.84 53.20-18.50Q54.08-18.16 54.68-17.66Q55.28-17.16 55.56-16.56Q55.84-15.96 55.84-15.44L55.84-15.44Z M67.96-28L64.56-28L64.56 0L67.96 0L67.96-11.56Q67.96-12.36 68.08-13.52Q68.20-14.68 68.74-15.76Q69.28-16.84 70.36-17.62Q71.44-18.40 73.36-18.40L73.36-18.40Q74.72-18.40 75.54-17.90Q76.36-17.40 76.80-16.56Q77.24-15.72 77.38-14.60Q77.52-13.48 77.52-12.28L77.52-12.28L77.52 0L80.92 0L80.92-13.20Q80.92-15.44 80.28-16.86Q79.64-18.28 78.68-19.08Q77.72-19.88 76.58-20.16Q75.44-20.44 74.40-20.44L74.40-20.44Q73-20.44 71.46-19.90Q69.92-19.36 68.56-17.84L68.56-17.84L68.12-17.28L67.96-17.28L67.96-28Z"/></g>
</svg>
</g></svg></svg>