<svg version="1.1" preserveAspectRatio="none" xmlns="http://www.w3.org/2000/svg" width="500" height="500" viewBox="0 0 500 500"><rect width="100%" height="100%" fill="#101F37" fill-opacity="1"/><svg viewBox="151.6283 598.5687 362.3698 312.7186" width="333" height="287.3729924513577" x="83.5px" y="106.3135px" xmlns="http://www.w3.org/2000/svg" xmlns:xlink="http://www.w3.org/1999/xlink" preserveAspectRatio="none"><defs></defs><style>.companyName {fill:#E9B0D6;fill-opacity:1;}.icon1 {fill:#929292;fill-opacity:1;}.icon2 {fill:#E9B0D6;fill-opacity:1;}.icon3 {fill:#E5E5E5;fill-opacity:1;}.icon3-str {stroke:#E5E5E5;stroke-opacity:1;}.text {fill:#E9B0D6;fill-opacity:1;}</style><g opacity="1" transform="rotate(0 206.3159 892.2873)">
<svg width="252.9946" height="19" x="206.3159" y="892.2873" version="1.1" preserveAspectRatio="none" viewBox="0.36 -28 478.24 35.92">
  <g transform="matrix(1 0 0 1 0 0)" class="text"><path id="id-6izo4zJp24" d="M19.16-22.24L12 0L8.60 0L0.36-26.48L3.52-26.48L10.32-4.24L17.44-26.48L20.88-26.48L28-4.24L34.80-26.48L37.96-26.48L29.72 0L26.32 0L19.16-22.24Z M44.92 0L44.92-20L47.92-20L47.92 0L44.92 0ZM44.80-27.28L48.04-27.28L48.04-23.36L44.80-23.36L44.80-27.28Z M71.92-14.64L68.88-14.64Q68.48-17.76 63.86-17.76Q59.24-17.76 59.24-14.88L59.24-14.88Q59.24-13.68 60.22-13.06Q61.20-12.44 62.68-12.04Q64.16-11.64 65.90-11.30Q67.64-10.96 69.12-10.34Q70.60-9.72 71.58-8.64Q72.56-7.56 72.56-5.68L72.56-5.68Q72.56-2.76 70.36-1.22Q68.16 0.32 64.40 0.32L64.40 0.32Q60.40 0.32 58.04-1.68L58.04-1.68Q55.88-3.44 55.72-6.28L55.72-6.28L58.84-6.28Q59.12-3.52 61.96-2.56L61.96-2.56Q63-2.24 64.02-2.24Q65.04-2.24 65.92-2.36Q66.80-2.48 67.64-2.80L67.64-2.80Q69.56-3.56 69.56-5.40L69.56-5.40Q69.56-6.64 68.58-7.30Q67.60-7.96 66.12-8.38Q64.64-8.80 62.90-9.14Q61.16-9.48 59.68-10.08Q58.20-10.68 57.22-11.72Q56.24-12.76 56.24-14.60L56.24-14.60Q56.24-17.32 58.22-18.82Q60.20-20.32 64.08-20.32L64.08-20.32Q67.76-20.32 69.88-18.56L69.88-18.56Q71.64-17.08 71.92-14.64L71.92-14.64Z M80.40-28L83.40-28L83.40-16.88Q84.48-18.32 86.04-19.32Q87.60-20.32 89.60-20.32Q91.60-20.32 93.04-19.76Q94.48-19.20 95.56-18.08L95.56-18.08Q98.04-15.64 98.04-11.64L98.04-11.64L98.04 0L95.04 0L95.04-11.56Q95.04-14.32 93.48-15.96Q91.92-17.60 89.44-17.60L89.44-17.60Q86.92-17.60 85.16-15.92L85.16-15.92Q83.40-14.20 83.40-11.52L83.40-11.52L83.40 0L80.40 0L80.40-28Z M119.56 0L119.56-20L122.56-20L122.56 0L119.56 0ZM119.44-27.28L122.68-27.28L122.68-23.36L119.44-23.36L119.44-27.28Z M136.92 0L133.92 0L133.92-17.36L129.84-17.36L129.84-20L133.92-20L133.92-27.16L136.92-27.16L136.92-20L141.52-20L141.52-17.36L136.92-17.36L136.92 0Z M145.92 5.32L148.24-3.20L152.16-3.20L148.64 5.32L145.92 5.32Z M177.08-22.42Q176.32-21.76 176.06-20.96Q175.80-20.16 175.80-19.26Q175.80-18.36 176.58-17.60Q177.36-16.84 178.64-16.32Q179.92-15.80 181.56-15.40Q183.20-15 184.90-14.58Q186.60-14.16 188.24-13.62Q189.88-13.08 191.16-12.24L191.16-12.24Q194-10.44 194-7.32L194-7.32Q194-3.60 191.22-1.64Q188.44 0.32 183.52 0.32L183.52 0.32Q177.96 0.32 175.04-2L175.04-2Q172.44-4.08 172.08-7.92L172.08-7.92L175.20-7.92Q175.36-5.20 177.84-3.76L177.84-3.76Q180-2.52 183.56-2.52L183.56-2.52Q191-2.52 191-7.20L191-7.20Q191-8.80 189.66-9.72Q188.32-10.64 186.30-11.24Q184.28-11.84 181.94-12.36Q179.60-12.88 177.58-13.70Q175.56-14.52 174.22-15.86Q172.88-17.20 172.88-19.48L172.88-19.48Q172.88-22.72 175.36-24.76Q177.84-26.80 182.84-26.80L182.84-26.80Q187.88-26.80 190.64-24.48L190.64-24.48Q193.16-22.44 193.32-19.24L193.32-19.24L190.24-19.24Q189.84-22.52 186-23.60L186-23.60Q184.64-24 182.62-24Q180.60-24 179.22-23.54Q177.84-23.08 177.08-22.42Z M202-28L205-28L205-16.88Q206.08-18.32 207.64-19.32Q209.20-20.32 211.20-20.32Q213.20-20.32 214.64-19.76Q216.08-19.20 217.16-18.08L217.16-18.08Q219.64-15.64 219.64-11.64L219.64-11.64L219.64 0L216.64 0L216.64-11.56Q216.64-14.32 215.08-15.96Q213.52-17.60 211.04-17.60L211.04-17.60Q208.52-17.60 206.76-15.92L206.76-15.92Q205-14.20 205-11.52L205-11.52L205 0L202 0L202-28Z M237.32-20.32L237.32-20.32Q241.80-20.32 244.60-17.32L244.60-17.32Q247.24-14.44 247.24-10L247.24-10Q247.24-5.56 244.60-2.68L244.60-2.68Q241.80 0.32 237.32 0.32L237.32 0.32Q232.84 0.32 230.04-2.68L230.04-2.68Q227.40-5.56 227.40-10L227.40-10Q227.40-14.44 230.04-17.32L230.04-17.32Q232.84-20.32 237.32-20.32ZM237.32-2.40L237.32-2.40Q240.56-2.40 242.44-4.64L242.44-4.64Q244.24-6.76 244.24-10L244.24-10Q244.24-13.24 242.44-15.36L242.44-15.36Q240.56-17.60 237.32-17.60L237.32-17.60Q234.08-17.60 232.20-15.36L232.20-15.36Q230.40-13.24 230.40-10L230.40-10Q230.40-6.76 232.20-4.64L232.20-4.64Q234.08-2.40 237.32-2.40Z M258.20-20L258.20-16.80Q260.60-20.32 265.36-20.32L265.36-20.32Q269.68-20.32 272.36-17.32L272.36-17.32Q275.04-14.36 275.04-10L275.04-10Q275.04-5.64 272.36-2.68L272.36-2.68Q269.68 0.32 265.16 0.32Q260.64 0.32 258.20-3.24L258.20-3.24L258.20 7.92L255.20 7.92L255.20-20L258.20-20ZM264.96-17.60L264.96-17.60Q261.72-17.60 259.84-15.36L259.84-15.36Q258.04-13.24 258.04-10L258.04-10Q258.04-6.76 259.84-4.64L259.84-4.64Q261.72-2.40 264.96-2.40L264.96-2.40Q268.16-2.40 270.16-4.64L270.16-4.64Q272.04-6.76 272.04-10L272.04-10Q272.04-13.24 270.16-15.36L270.16-15.36Q268.16-17.60 264.96-17.60Z M295.48 0L295.48-20L298.48-20L298.48 0L295.48 0ZM295.36-27.28L298.60-27.28L298.60-23.36L295.36-23.36L295.36-27.28Z M312.84 0L309.84 0L309.84-17.36L305.76-17.36L305.76-20L309.84-20L309.84-27.16L312.84-27.16L312.84-20L317.44-20L317.44-17.36L312.84-17.36L312.84 0Z M321.84 5.32L324.16-3.20L328.08-3.20L324.56 5.32L321.84 5.32Z M361.72-26.80L361.72-26.80Q367.64-26.80 371.44-22.84L371.44-22.84Q375.16-19 375.16-13.24Q375.16-7.48 371.44-3.64L371.44-3.64Q367.64 0.32 361.72 0.32L361.72 0.32Q355.80 0.32 352.00-3.64L352.00-3.64Q348.28-7.48 348.28-13.24Q348.28-19 352.00-22.84L352.00-22.84Q355.80-26.80 361.72-26.80ZM361.72-2.60L361.72-2.60Q366.44-2.60 369.36-5.68L369.36-5.68Q372.16-8.64 372.16-13.24L372.16-13.24Q372.16-17.84 369.36-20.80L369.36-20.80Q366.44-23.88 361.72-23.88L361.72-23.88Q357.00-23.88 354.08-20.80L354.08-20.80Q351.28-17.84 351.28-13.24L351.28-13.24Q351.28-8.64 354.08-5.68L354.08-5.68Q357.00-2.60 361.72-2.60Z M400.80 0L395.80-15.96L390.80 0L387.36 0L381.08-20L384.28-20L389.08-3.72L394.16-20L397.44-20L402.52-3.72L407.32-20L410.52-20L404.24 0L400.80 0Z M417.48-20L420.48-20L420.48-16.88Q421.56-18.32 423.12-19.32Q424.68-20.32 426.68-20.32Q428.68-20.32 430.12-19.76Q431.56-19.20 432.64-18.08L432.64-18.08Q435.12-15.64 435.12-11.64L435.12-11.64L435.12 0L432.12 0L432.12-11.56Q432.12-14.32 430.56-15.96Q429-17.60 426.52-17.60L426.52-17.60Q424-17.60 422.24-15.92L422.24-15.92Q420.48-14.20 420.48-11.52L420.48-11.52L420.48 0L417.48 0L417.48-20Z M456.64 0L456.64-20L459.64-20L459.64 0L456.64 0ZM456.52-27.28L459.76-27.28L459.76-23.36L456.52-23.36L456.52-27.28Z M474.00 0L471.00 0L471.00-17.36L466.92-17.36L466.92-20L471.00-20L471.00-27.16L474.00-27.16L474.00-20L478.60-20L478.60-17.36L474.00-17.36L474.00 0Z"/></g>
</svg>
</g><g opacity="1" transform="rotate(0 151.6283 770.2873)">
<svg width="362.3698" height="100" x="151.6283" y="770.2873" version="1.1" preserveAspectRatio="none" viewBox="0.4297 -32.3828 118.832 32.793000000000006">
  <g transform="matrix(1 0 0 1 0 0)" class="companyName"><path id="id-D6z1nYkh4" d="M11.35 0L0.43-23.07L7.13-23.07L13.13-9.20L14.88-5.31L17.03-10.35L11.33-23.07L16.95-23.07L19.75-16.23L22.54-23.07L28.16-23.07L22.44-10.35L24.61-5.31L26.37-9.20L32.36-23.07L39.06-23.07L28.14 0L21.86 0L19.75-4.45L17.64 0L11.35 0Z M48.15-26.19L48.15-26.19Q47.29-26.19 46.60-26.44Q45.91-26.68 45.42-27.10Q44.93-27.52 44.67-28.08Q44.40-28.63 44.40-29.26L44.40-29.26Q44.40-29.90 44.67-30.46Q44.93-31.02 45.42-31.43Q45.91-31.84 46.60-32.08Q47.29-32.32 48.15-32.32L48.15-32.32Q49.03-32.32 49.72-32.08Q50.42-31.84 50.91-31.43Q51.39-31.02 51.66-30.46Q51.92-29.90 51.92-29.26L51.92-29.26Q51.92-28.63 51.66-28.08Q51.39-27.52 50.91-27.10Q50.42-26.68 49.72-26.44Q49.03-26.19 48.15-26.19ZM45.26 0L45.26-23.05L51.04-23.05L51.04 0L45.26 0Z M58.86-2.70L61.36-7.07Q63.71-5.66 66.52-5Q69.33-4.34 72.28-4.34L72.28-4.34Q74.27-4.34 75.60-4.61Q76.93-4.88 77.73-5.31Q78.53-5.74 78.86-6.29Q79.20-6.84 79.20-7.40L79.20-7.40Q79.20-8.22 78.48-8.81Q77.77-9.39 76.13-9.39L76.13-9.39Q75.37-9.39 74.49-9.30Q73.61-9.20 72.64-9.09Q71.68-8.98 70.63-8.89Q69.59-8.79 68.51-8.79L68.51-8.79Q66.17-8.79 64.52-9.30Q62.87-9.80 61.83-10.68Q60.80-11.56 60.33-12.76Q59.86-13.96 59.86-15.35L59.86-15.35Q59.86-17.11 60.68-18.59Q61.50-20.08 63.02-21.16Q64.55-22.25 66.71-22.85Q68.86-23.46 71.52-23.46L71.52-23.46Q72.91-23.46 74.42-23.29Q75.93-23.13 77.40-22.85Q78.86-22.58 80.21-22.22Q81.56-21.86 82.59-21.45L82.59-21.45L80.78-16.95Q78.57-17.77 76.37-18.25Q74.18-18.73 71.85-18.73L71.85-18.73Q70.23-18.73 69.11-18.49Q67.98-18.24 67.28-17.84Q66.58-17.44 66.26-16.92Q65.93-16.41 65.93-15.84L65.93-15.84Q65.93-15.43 66.10-15.10Q66.27-14.77 66.65-14.52Q67.03-14.28 67.64-14.15Q68.26-14.02 69.16-14.02L69.16-14.02Q69.98-14.02 70.89-14.12Q71.81-14.22 72.81-14.33Q73.80-14.43 74.87-14.53Q75.93-14.63 77.05-14.63L77.05-14.63Q79.12-14.63 80.67-14.14Q82.22-13.65 83.24-12.77Q84.25-11.89 84.76-10.70Q85.27-9.51 85.27-8.11L85.27-8.11Q85.27-6.29 84.43-4.73Q83.59-3.16 81.93-2.02Q80.27-0.88 77.80-0.23Q75.33 0.41 72.09 0.41L72.09 0.41Q70.09 0.41 68.24 0.17Q66.38-0.08 64.70-0.50Q63.02-0.92 61.55-1.48Q60.07-2.05 58.86-2.70L58.86-2.70Z M92.46 0L92.46-32.38L98.25-32.38L98.25-21.29Q100.06-22.29 102.30-22.87Q104.54-23.46 107.00-23.46L107.00-23.46Q109.85-23.46 112.12-22.62Q114.40-21.78 115.98-20.21Q117.56-18.63 118.41-16.39Q119.26-14.14 119.26-11.33L119.26-11.33L119.26 0L113.50 0L113.50-11.09Q113.50-12.73 112.97-14.09Q112.45-15.45 111.43-16.43Q110.41-17.40 108.96-17.94Q107.50-18.48 105.67-18.48L105.67-18.48Q103.46-18.48 101.57-17.77Q99.67-17.07 98.25-16.00L98.25-16.00L98.25 0L92.46 0Z"/></g>
</svg>
</g><g opacity="1" transform="rotate(0 260.3392 598.5687)">
<svg width="144.948" height="141.7186" x="260.3392" y="598.5687" version="1.1" preserveAspectRatio="none" viewBox="18.30000114440918 21 162.40066528320312 158.7824249267578">
  <g transform="matrix(1 0 0 1 0 0)"><g><path d="M169.9 84.9h-25.5l-15.7-36.5c4.9-2.3 8.3-7.2 8.3-13 0-7.9-6.4-14.3-14.3-14.3s-14.3 6.4-14.3 14.3c0 7.3 5.5 13.4 12.7 14.2l15.1 35.3H58.9L74 49.5c.7.1 1.4.2 2.2.2 7.9 0 14.3-6.4 14.3-14.3S84.1 21 76.2 21s-14.3 6.4-14.3 14.3c0 4.5 2 8.4 5.2 11.1L50.6 84.9H29.2s-10.9 0-10.9 9.3c0 0 0 9.3 12.4 9.3l10.9 68.4s0 7.8 15.6 7.8h88.6s10.9 1.6 12.4-9.3l7.8-66.9h2.3c12.4 0 12.4-9.3 12.4-9.3.1-9.3-10.8-9.3-10.8-9.3zm-47.2-42.8c-3.7 0-6.8-3-6.8-6.8s3-6.8 6.8-6.8c3.7 0 6.8 3 6.8 6.8s-3 6.8-6.8 6.8zM76.2 28.6c3.7 0 6.8 3 6.8 6.8s-3 6.8-6.8 6.8-6.8-3-6.8-6.8 3.1-6.8 6.8-6.8zm-34.3 76.5c-1.3 0-2.4-1.1-2.4-2.4 0-1.3 1.1-2.4 2.4-2.4l31.3.1c1.3 0 2.4 1.1 2.4 2.4 0 1.3-1.1 2.4-2.4 2.4l-31.3-.1zm18.8 55.5c0 1.3-1.1 2.4-2.4 2.4s-2.4-1.1-2.4-2.4v-38.9c0-1.3 1.1-2.4 2.4-2.4s2.4 1.1 2.4 2.4v38.9zm15.2 0c0 1.3-1.1 2.4-2.4 2.4-1.3 0-2.4-1.1-2.4-2.4v-38.9c0-1.3 1.1-2.4 2.4-2.4 1.3 0 2.4 1.1 2.4 2.4v38.9zm17 0c0 1.3-1.1 2.4-2.4 2.4s-2.4-1.1-2.4-2.4v-38.9c0-1.3 1.1-2.4 2.4-2.4s2.4 1.1 2.4 2.4v38.9zm17.1 0c0 1.3-1.1 2.4-2.4 2.4s-2.4-1.1-2.4-2.4v-38.9c0-1.3 1.1-2.4 2.4-2.4s2.4 1.1 2.4 2.4v38.9zm17.1 0c0 1.3-1.1 2.4-2.4 2.4s-2.4-1.1-2.4-2.4v-38.9c0-1.3 1.1-2.4 2.4-2.4s2.4 1.1 2.4 2.4v38.9zm16.1 0c0 1.3-1.1 2.4-2.4 2.4s-2.4-1.1-2.4-2.4v-38.9c0-1.3 1.1-2.4 2.4-2.4s2.4 1.1 2.4 2.4v38.9zm11-55.3l-63.7-.2c-1.3 0-2.4-1.1-2.4-2.4 0-1.3 1.1-2.4 2.4-2.4l63.6.2c1.3 0 2.4 1.1 2.4 2.4 0 1.4-1 2.4-2.3 2.4z" data-color="1" class="icon1"></path></g></g>
</svg>
</g></svg></svg>