<svg version="1.1" preserveAspectRatio="none" xmlns="http://www.w3.org/2000/svg" width="500" height="500" viewBox="0 0 500 500"><rect width="100%" height="100%" fill="#FFFFFF" fill-opacity="1"/><svg viewBox="148.5066 528.4033 423.9282 184" width="333" height="144.53390927992052" x="83.5px" y="177.733px" xmlns="http://www.w3.org/2000/svg" xmlns:xlink="http://www.w3.org/1999/xlink" preserveAspectRatio="none"><defs></defs><style>.companyName {fill:#1e1e1e;fill-opacity:1;}.icon1 {fill:#1E1E1E;fill-opacity:1;}.icon3-str {stroke:#848383;stroke-opacity:1;}.shapeStroke-str {stroke:#949393;stroke-opacity:1;}</style><g opacity="1" transform="rotate(0 148.5066 672.4033)">
<svg width="423.9282" height="1" x="148.5066" y="672.4033" version="1.1" preserveAspectRatio="none" viewBox="0 0 423.9282 1">
  <defs><rect x="0" y="0" width="423.9282" height="1" rx="0%" ry="0%" id="id-Fn9MWtLe1738614868949"></rect></defs><use class="icon1 shapeStroke-str" style="stroke-width:0;" xlink:href="#id-Fn9MWtLe1738614868949"></use>
</svg>
</g><g opacity="1" transform="rotate(0 148.5066 528.4033)">
<svg width="423.9282" height="4" x="148.5066" y="528.4033" version="1.1" preserveAspectRatio="none" viewBox="0 0 423.9282 4">
  <defs><rect x="0" y="0" width="423.9282" height="4" rx="0%" ry="0%" id="id-7UcwTXs11738614868949"></rect></defs><use class="icon1 shapeStroke-str" style="stroke-width:0;" xlink:href="#id-7UcwTXs11738614868949"></use>
</svg>
</g><g opacity="1" transform="rotate(0 221.9393 688.4033)">
<svg width="277.0628" height="24" x="221.9393" y="688.4033" version="1.1" preserveAspectRatio="none" viewBox="1.96 -30.4 437.72 37.92">
  <g transform="matrix(1 0 0 1 0 0)" class="companyName"><path id="id-6izo4zJp24" d="M37.76-28.32L26.36 1.28L19.84-15.80L13.16 1.32L1.96-28.32L4.20-28.32L13.36-3.28L18.88-18.24L15.04-28.32L17-28.32L26.44-3.52L35.68-28.32L37.76-28.32Z M44.16-15.64L46.04-15.64L46.04 0L44.16 0L44.16-15.64ZM43.76-21.40Q43.76-21.96 44.18-22.34Q44.60-22.72 45.16-22.72L45.16-22.72Q45.72-22.72 46.12-22.34Q46.52-21.96 46.52-21.40L46.52-21.40Q46.52-20.80 46.12-20.42Q45.72-20.04 45.16-20.04L45.16-20.04Q44.60-20.04 44.18-20.44Q43.76-20.84 43.76-21.40L43.76-21.40Z M58.84 0.32Q57.32 0.32 55.90-0.20Q54.48-0.72 53.60-1.80L53.60-1.80L54.48-3.04Q55.28-2.20 56.40-1.70Q57.52-1.20 58.72-1.20L58.72-1.20Q60.24-1.20 61.28-1.90Q62.32-2.60 62.32-4.08L62.32-4.08Q62.32-5.12 61.76-5.74Q61.20-6.36 60.48-6.66Q59.76-6.96 58.16-7.48L58.16-7.48Q56.28-8.12 55.26-9.10Q54.24-10.08 54.24-11.72L54.24-11.72Q54.24-13.64 55.58-14.82Q56.92-16 59-16L59-16Q61.88-16 63.68-14.24L63.68-14.24L62.84-12.92Q62.24-13.72 61.26-14.08Q60.28-14.44 59.28-14.48L59.28-14.48Q58.08-14.48 57.10-13.82Q56.12-13.16 56.12-11.96L56.12-11.96Q56.12-10.72 57-10.10Q57.88-9.48 59.68-8.84L59.68-8.84Q61.88-8.12 63.04-7.22Q64.20-6.32 64.20-4.48L64.20-4.48Q64.20-2.32 62.82-1Q61.44 0.32 58.84 0.32L58.84 0.32Z M80.28-16.08Q82.44-16.08 83.80-14.78Q85.16-13.48 85.24-11.40L85.24-11.40L85.24 0L83.32 0L83.32-10.88Q83.24-12.44 82.32-13.42Q81.40-14.40 79.68-14.44L79.68-14.44Q78.12-14.44 76.76-13.64Q75.40-12.84 74.58-11.46Q73.76-10.08 73.76-8.40L73.76-8.40L73.76 0L71.88 0L71.88-30.40L73.72-30.40L73.72-12.40Q74.60-14 76.36-15.04Q78.12-16.08 80.28-16.08L80.28-16.08Z M108.64-15.64L110.52-15.64L110.52 0L108.64 0L108.64-15.64ZM108.24-21.40Q108.24-21.96 108.66-22.34Q109.08-22.72 109.64-22.72L109.64-22.72Q110.20-22.72 110.60-22.34Q111.00-21.96 111.00-21.40L111.00-21.40Q111.00-20.80 110.60-20.42Q110.20-20.04 109.64-20.04L109.64-20.04Q109.08-20.04 108.66-20.44Q108.24-20.84 108.24-21.40L108.24-21.40Z M121.20-22.52L123.12-22.52L123.12-15.44L127.96-15.44L127.96-13.92L123.12-13.92L123.12 0L121.20 0L121.20-13.92L117.88-13.92L117.88-15.44L121.20-15.44L121.20-22.52Z M136.80-3.48L133.36 4.84L131.76 4.84L134.84-3.48L136.80-3.48Z M174.12-25.20Q172.68-25.88 170.92-26.36Q169.16-26.84 167.48-26.84L167.48-26.84Q164.68-26.84 163-25.46Q161.32-24.08 161.32-21.92L161.32-21.92Q161.32-20.40 162.22-19.34Q163.12-18.28 164.52-17.58Q165.92-16.88 168.12-16.04L168.12-16.04Q170.52-15.16 172.10-14.24Q173.68-13.32 174.76-11.74Q175.84-10.16 175.84-7.68L175.84-7.68Q175.84-5.32 174.72-3.50Q173.60-1.68 171.58-0.68Q169.56 0.32 166.96 0.32L166.96 0.32Q162.44 0.32 158-2.60L158-2.60L158.92-4.20Q160.40-3.08 162.56-2.24Q164.72-1.40 166.76-1.40L166.76-1.40Q168.56-1.40 170.18-2.10Q171.80-2.80 172.82-4.22Q173.84-5.64 173.84-7.64L173.84-7.64Q173.84-9.52 172.90-10.80Q171.96-12.08 170.54-12.86Q169.12-13.64 166.96-14.44L166.96-14.44Q164.56-15.32 163-16.14Q161.44-16.96 160.38-18.32Q159.32-19.68 159.32-21.72L159.32-21.72Q159.32-23.72 160.34-25.26Q161.36-26.80 163.18-27.66Q165-28.52 167.24-28.56L167.24-28.56Q169.16-28.56 171.22-28.04Q173.28-27.52 174.88-26.72L174.88-26.72L174.12-25.20Z M192.60-16.08Q194.76-16.08 196.12-14.78Q197.48-13.48 197.56-11.40L197.56-11.40L197.56 0L195.64 0L195.64-10.88Q195.56-12.44 194.64-13.42Q193.72-14.40 192-14.44L192-14.44Q190.44-14.44 189.08-13.64Q187.72-12.84 186.90-11.46Q186.08-10.08 186.08-8.40L186.08-8.40L186.08 0L184.20 0L184.20-30.40L186.04-30.40L186.04-12.40Q186.92-14 188.68-15.04Q190.44-16.08 192.60-16.08L192.60-16.08Z M205.16-7.92Q205.16-10.16 206.26-12.06Q207.36-13.96 209.28-15.06Q211.20-16.16 213.52-16.16L213.52-16.16Q215.84-16.16 217.76-15.06Q219.68-13.96 220.76-12.06Q221.84-10.16 221.84-7.92L221.84-7.92Q221.84-5.64 220.74-3.76Q219.64-1.88 217.74-0.78Q215.84 0.32 213.48 0.32L213.48 0.32Q211.12 0.32 209.22-0.74Q207.32-1.80 206.24-3.68Q205.16-5.56 205.16-7.92L205.16-7.92ZM207.04-7.88Q207.04-6.08 207.90-4.56Q208.76-3.04 210.24-2.16Q211.72-1.28 213.48-1.28L213.48-1.28Q215.24-1.28 216.72-2.16Q218.20-3.04 219.06-4.56Q219.92-6.08 219.92-7.88L219.92-7.88Q219.92-9.68 219.06-11.22Q218.20-12.76 216.72-13.64Q215.24-14.52 213.48-14.52L213.48-14.52Q211.68-14.52 210.20-13.58Q208.72-12.64 207.88-11.12Q207.04-9.60 207.04-7.88L207.04-7.88Z M238.36-16.12Q240.56-16.12 242.38-15.04Q244.20-13.96 245.26-12.06Q246.32-10.16 246.32-7.84L246.32-7.84Q246.32-5.52 245.24-3.64Q244.16-1.76 242.26-0.72Q240.36 0.32 238.08 0.32L238.08 0.32Q236 0.32 234.18-0.68Q232.36-1.68 231.32-3.32L231.32-3.32L231.32 7.52L229.44 7.52L229.44-15.76L231.12-15.76L231.24-12.28Q232.36-14.04 234.26-15.08Q236.16-16.12 238.36-16.12L238.36-16.12ZM237.76-1.24Q239.56-1.24 241.08-2.12Q242.60-3 243.50-4.52Q244.40-6.04 244.40-7.84L244.40-7.84Q244.40-9.68 243.54-11.20Q242.68-12.72 241.18-13.60Q239.68-14.48 237.88-14.48L237.88-14.48Q236.16-14.48 234.70-13.68Q233.24-12.88 232.34-11.50Q231.44-10.12 231.32-8.44L231.32-8.44L231.32-7.16Q231.44-5.52 232.34-4.16Q233.24-2.80 234.66-2.02Q236.08-1.24 237.76-1.24L237.76-1.24Z M268.20-15.64L270.08-15.64L270.08 0L268.20 0L268.20-15.64ZM267.80-21.40Q267.80-21.96 268.22-22.34Q268.64-22.72 269.20-22.72L269.20-22.72Q269.76-22.72 270.16-22.34Q270.56-21.96 270.56-21.40L270.56-21.40Q270.56-20.80 270.16-20.42Q269.76-20.04 269.20-20.04L269.20-20.04Q268.64-20.04 268.22-20.44Q267.80-20.84 267.80-21.40L267.80-21.40Z M280.76-22.52L282.68-22.52L282.68-15.44L287.52-15.44L287.52-13.92L282.68-13.92L282.68 0L280.76 0L280.76-13.92L277.44-13.92L277.44-15.44L280.76-15.44L280.76-22.52Z M296.36-3.48L292.92 4.84L291.32 4.84L294.40-3.48L296.36-3.48Z M317.68-14.16Q317.68-18.08 319.64-21.42Q321.60-24.76 324.92-26.74Q328.24-28.72 332.16-28.72L332.16-28.72Q336.08-28.72 339.44-26.74Q342.80-24.76 344.76-21.42Q346.72-18.08 346.72-14.16L346.72-14.16Q346.72-10.24 344.76-6.90Q342.80-3.56 339.44-1.62Q336.08 0.32 332.16 0.32L332.16 0.32Q328.20 0.32 324.88-1.56Q321.56-3.44 319.62-6.76Q317.68-10.08 317.68-14.16L317.68-14.16ZM319.68-14.12Q319.68-10.72 321.36-7.84Q323.04-4.96 325.88-3.26Q328.72-1.56 332.12-1.56L332.12-1.56Q335.56-1.56 338.46-3.24Q341.36-4.92 343.04-7.82Q344.72-10.72 344.72-14.16L344.72-14.16Q344.72-17.60 343.02-20.50Q341.32-23.40 338.44-25.12Q335.56-26.84 332.16-26.84L332.16-26.84Q328.72-26.84 325.84-25.10Q322.96-23.36 321.32-20.44Q319.68-17.52 319.68-14.12L319.68-14.12Z M375.00-15.64L376.92-15.64L369.56 0.96L364.52-10.16L359.92 0.96L352.56-15.64L354.44-15.64L360.08-2.92L363.80-11.92L362.08-15.64L363.80-15.64L369.52-2.80L375.00-15.64Z M392.00-16.08Q394.16-16.08 395.52-14.78Q396.88-13.48 396.96-11.40L396.96-11.40L396.96 0L395.04 0L395.04-10.88Q394.96-12.44 394.04-13.42Q393.12-14.40 391.40-14.44L391.40-14.44Q389.80-14.44 388.46-13.68Q387.12-12.92 386.30-11.54Q385.48-10.16 385.48-8.40L385.48-8.40L385.48 0L383.60 0L383.60-15.64L385.24-15.64L385.40-12.16Q386.16-13.96 387.98-15.02Q389.80-16.08 392.00-16.08L392.00-16.08Z M420.36-15.64L422.24-15.64L422.24 0L420.36 0L420.36-15.64ZM419.96-21.40Q419.96-21.96 420.38-22.34Q420.80-22.72 421.36-22.72L421.36-22.72Q421.92-22.72 422.32-22.34Q422.72-21.96 422.72-21.40L422.72-21.40Q422.72-20.80 422.32-20.42Q421.92-20.04 421.36-20.04L421.36-20.04Q420.80-20.04 420.38-20.44Q419.96-20.84 419.96-21.40L419.96-21.40Z M432.92-22.52L434.84-22.52L434.84-15.44L439.68-15.44L439.68-13.92L434.84-13.92L434.84 0L432.92 0L432.92-13.92L429.60-13.92L429.60-15.44L432.92-15.44L432.92-22.52Z"/></g>
</svg>
</g><g opacity="1" transform="rotate(0 168.5066 552.4033)">
<svg width="383.9282" height="100" x="168.5066" y="552.4033" version="1.1" preserveAspectRatio="none" viewBox="-0.08 -25.44 99.55999999999999 25.92">
  <g transform="matrix(1 0 0 1 0 0)" class="companyName"><path id="id-D6z1nYkh4" d="M37.16-25Q37.24-25 37.24-24.76Q37.24-24.52 37.16-24.52L37.16-24.52Q34.28-24.52 32.84-20.88L32.84-20.88L24.68-0.04Q24.64 0.12 24.24 0.12L24.24 0.12Q23.84 0.12 23.80-0.04L23.80-0.04L18.60-11.24L14.24-0.04Q14.20 0.12 13.80 0.12L13.80 0.12Q13.40 0.12 13.36-0.04L13.36-0.04L3.32-21.68Q2.56-23.36 1.90-23.94Q1.24-24.52 0.04-24.52L0.04-24.52Q-0.08-24.52-0.08-24.76Q-0.08-25 0.04-25L0.04-25L1.28-24.96Q2.32-24.88 3.24-24.88L3.24-24.88Q5.04-24.88 6.80-24.96L6.80-24.96Q7.36-25 8.32-25L8.32-25Q8.44-25 8.44-24.76Q8.44-24.52 8.32-24.52L8.32-24.52Q7.16-24.52 6.64-24.28Q6.12-24.04 6.12-23.36L6.12-23.36Q6.12-22.80 6.68-21.56L6.68-21.56L14.80-4.24L18.04-12.44L13.76-21.68Q13.08-23.16 12.38-23.84Q11.68-24.52 10.68-24.52L10.68-24.52Q10.56-24.52 10.56-24.76Q10.56-25 10.68-25L10.68-25L11.92-24.96Q12.88-24.88 13.68-24.88L13.68-24.88Q15.20-24.88 16.48-24.96L16.48-24.96Q16.88-25 17.56-25L17.56-25Q17.68-25 17.68-24.76Q17.68-24.52 17.56-24.52L17.56-24.52Q16.88-24.52 16.58-24.38Q16.28-24.24 16.28-23.88L16.28-23.88Q16.28-23.56 16.52-22.96Q16.76-22.36 17.12-21.56L17.12-21.56L19.68-16.08L21.64-21.04Q22.20-22.52 22.20-23.28L22.20-23.28Q22.20-24.52 20.72-24.52L20.72-24.52Q20.64-24.52 20.64-24.76Q20.64-25 20.72-25L20.72-25L21.52-24.96Q22.24-24.88 23.36-24.88L23.36-24.88Q24.12-24.88 25.08-24.96L25.08-24.96L26.72-25Q26.80-25 26.80-24.76Q26.80-24.52 26.72-24.52L26.72-24.52Q25.36-24.52 24.36-23.68Q23.36-22.84 22.60-20.88L22.60-20.88L20.24-14.92L25.24-4.24L31.80-20.88Q32.16-21.80 32.16-22.52L32.16-22.52Q32.16-24.52 29.36-24.52L29.36-24.52Q29.24-24.52 29.24-24.76Q29.24-25 29.36-25L29.36-25L31.08-24.96Q32.52-24.88 33.60-24.88L33.60-24.88Q34.40-24.88 35.44-24.96L35.44-24.96L37.16-25Z M45.32-3.24Q45.32-2.04 45.56-1.46Q45.80-0.88 46.46-0.68Q47.12-0.48 48.56-0.48L48.56-0.48Q48.64-0.48 48.64-0.24Q48.64 0 48.56 0L48.56 0Q47.28 0 46.56-0.04L46.56-0.04L43.68-0.08L40.88-0.04Q40.12 0 38.80 0L38.80 0Q38.72 0 38.72-0.24Q38.72-0.48 38.80-0.48L38.80-0.48Q40.24-0.48 40.92-0.68Q41.60-0.88 41.84-1.46Q42.08-2.04 42.08-3.24L42.08-3.24L42.08-21.76Q42.08-22.96 41.84-23.52Q41.60-24.08 40.92-24.30Q40.24-24.52 38.80-24.52L38.80-24.52Q38.72-24.52 38.72-24.76Q38.72-25 38.80-25L38.80-25L40.88-24.96Q42.64-24.88 43.68-24.88L43.68-24.88Q44.84-24.88 46.60-24.96L46.60-24.96L48.56-25Q48.64-25 48.64-24.76Q48.64-24.52 48.56-24.52L48.56-24.52Q47.16-24.52 46.48-24.28Q45.80-24.04 45.56-23.46Q45.32-22.88 45.32-21.68L45.32-21.68L45.32-3.24Z M56.56-20.52Q56.56-19 57.32-17.86Q58.08-16.72 59.16-15.90Q60.24-15.08 62.16-13.92L62.16-13.92Q64.16-12.68 65.34-11.78Q66.52-10.88 67.36-9.56Q68.20-8.24 68.20-6.44L68.20-6.44Q68.20-4.48 67.18-2.90Q66.16-1.32 64.26-0.42Q62.36 0.48 59.84 0.48L59.84 0.48Q58.24 0.48 56.68 0.10Q55.12-0.28 53.96-1L53.96-1Q53.76-1.12 53.68-1.28Q53.60-1.44 53.60-1.76L53.60-1.76L53.20-7.48Q53.16-7.64 53.38-7.68Q53.60-7.72 53.64-7.56L53.64-7.56Q54.60-4.52 56.32-2.40Q58.04-0.28 60.80-0.28L60.80-0.28Q62.68-0.28 63.94-1.30Q65.20-2.32 65.20-4.64L65.20-4.64Q65.20-6.40 64.40-7.72Q63.60-9.04 62.46-9.94Q61.32-10.84 59.40-12L59.40-12Q57.52-13.20 56.42-14.06Q55.32-14.92 54.56-16.18Q53.80-17.44 53.80-19.12L53.80-19.12Q53.80-21.16 54.90-22.60Q56-24.04 57.78-24.74Q59.56-25.44 61.52-25.44L61.52-25.44Q64.20-25.44 66.36-24.52L66.36-24.52Q66.96-24.28 66.96-23.80L66.96-23.80L67.16-18.80Q67.16-18.64 66.96-18.60Q66.76-18.56 66.72-18.72L66.72-18.72Q66.28-20.88 64.84-22.82Q63.40-24.76 60.76-24.76L60.76-24.76Q58.76-24.76 57.66-23.56Q56.56-22.36 56.56-20.52L56.56-20.52Z M99.36-0.48Q99.48-0.48 99.48-0.24Q99.48 0 99.36 0L99.36 0Q98.08 0 97.32-0.04L97.32-0.04L94.44-0.08L91.28-0.04Q90.60 0 89.40 0L89.40 0Q89.28 0 89.28-0.24Q89.28-0.48 89.40-0.48L89.40-0.48Q90.92-0.48 91.64-0.68Q92.36-0.88 92.60-1.46Q92.84-2.04 92.84-3.24L92.84-3.24L92.84-12.56L78.28-12.56L78.28-3.24Q78.28-2.04 78.52-1.46Q78.76-0.88 79.48-0.68Q80.20-0.48 81.72-0.48L81.72-0.48Q81.80-0.48 81.80-0.24Q81.80 0 81.72 0L81.72 0Q80.44 0 79.68-0.04L79.68-0.04L76.60-0.08L73.76-0.04Q73 0 71.68 0L71.68 0Q71.60 0 71.60-0.24Q71.60-0.48 71.68-0.48L71.68-0.48Q73.16-0.48 73.86-0.68Q74.56-0.88 74.82-1.46Q75.08-2.04 75.08-3.24L75.08-3.24L75.08-21.76Q75.08-22.96 74.84-23.52Q74.60-24.08 73.92-24.30Q73.24-24.52 71.76-24.52L71.76-24.52Q71.64-24.52 71.64-24.76Q71.64-25 71.76-25L71.76-25L73.80-24.96Q75.48-24.88 76.60-24.88L76.60-24.88Q77.88-24.88 79.72-24.96L79.72-24.96L81.72-25Q81.80-25 81.80-24.76Q81.80-24.52 81.72-24.52L81.72-24.52Q80.24-24.52 79.52-24.28Q78.80-24.04 78.54-23.46Q78.28-22.88 78.28-21.68L78.28-21.68L78.28-13.48L92.84-13.48L92.84-21.68Q92.84-22.88 92.58-23.46Q92.32-24.04 91.62-24.28Q90.92-24.52 89.40-24.52L89.40-24.52Q89.28-24.52 89.28-24.76Q89.28-25 89.40-25L89.40-25L91.28-24.96Q93.12-24.88 94.44-24.88L94.44-24.88Q95.56-24.88 97.32-24.96L97.32-24.96L99.36-25Q99.48-25 99.48-24.76Q99.48-24.52 99.36-24.52L99.36-24.52Q97.88-24.52 97.20-24.30Q96.52-24.08 96.26-23.52Q96-22.96 96-21.76L96-21.76L96-3.24Q96-2.04 96.26-1.46Q96.52-0.88 97.20-0.68Q97.88-0.48 99.36-0.48L99.36-0.48Z"/></g>
</svg>
</g></svg></svg>